<?xml version="1.0" encoding="UTF-8" standalone="no"?>
<!DOCTYPE svg PUBLIC "-//W3C//DTD SVG 1.1//EN"
 "http://www.w3.org/Graphics/SVG/1.1/DTD/svg11.dtd">
<!-- Generated by graphviz version 2.40.1 (0)
 -->
<!-- Title: Spec Pages: 1 -->
<svg width="758pt" height="505pt"
 viewBox="0.00 0.00 758.14 505.00" xmlns="http://www.w3.org/2000/svg" xmlns:xlink="http://www.w3.org/1999/xlink">
<g id="graph0" class="graph" transform="scale(1 1) rotate(0) translate(4 501)">
<title>Spec</title>
<polygon fill="#ffffff" stroke="transparent" points="-4,4 -4,-501 754.1367,-501 754.1367,4 -4,4"/>
<!-- Syntax -->
<g id="node1" class="node">
<title>Syntax</title>
<ellipse fill="none" stroke="#000000" cx="234.0957" cy="-330" rx="43" ry="18"/>
<text text-anchor="middle" x="234.0957" y="-326.3" font-family="Times-Roman" font-size="14.00" fill="#000000">Syntax</text>
</g>
<!-- Grammar -->
<g id="node4" class="node">
<title>Grammar</title>
<ellipse fill="none" stroke="#000000" cx="48.0957" cy="-167" rx="48.1917" ry="18"/>
<text text-anchor="middle" x="48.0957" y="-163.3" font-family="Times-Roman" font-size="14.00" fill="#000000">Grammar</text>
</g>
<!-- Syntax&#45;&gt;Grammar -->
<g id="edge1" class="edge">
<title>Syntax&#45;&gt;Grammar</title>
<path fill="none" stroke="#000000" d="M199.9133,-318.9011C168.8045,-307.3506 123.262,-286.6276 93.0957,-256 76.1027,-238.7471 64.2457,-213.7807 56.9849,-194.6789"/>
<polygon fill="#000000" stroke="#000000" points="60.191,-193.2516 53.5123,-185.027 53.6044,-195.6214 60.191,-193.2516"/>
<text text-anchor="middle" x="147.0957" y="-244.8" font-family="Times-Roman" font-size="14.00" fill="#000000">Specification</text>
</g>
<!-- Parse Tree -->
<g id="node5" class="node">
<title>Parse Tree</title>
<ellipse fill="none" stroke="#000000" cx="179.0957" cy="-167" rx="64.5" ry="18"/>
<text text-anchor="middle" x="179.0957" y="-163.3" font-family="Times-Roman" font-size="14.00" fill="#000000">Parse Tree</text>
</g>
<!-- Syntax&#45;&gt;Parse Tree -->
<g id="edge2" class="edge">
<title>Syntax&#45;&gt;Parse Tree</title>
<path fill="none" stroke="#000000" d="M227.9996,-311.9334C218.4186,-283.5388 199.7664,-228.2604 188.4704,-194.7832"/>
<polygon fill="#000000" stroke="#000000" points="191.7326,-193.5037 185.2191,-185.1476 185.1,-195.7417 191.7326,-193.5037"/>
<text text-anchor="middle" x="230.0957" y="-244.8" font-family="Times-Roman" font-size="14.00" fill="#000000">Proof</text>
</g>
<!-- AST -->
<g id="node6" class="node">
<title>AST</title>
<ellipse fill="none" stroke="#000000" cx="289.0957" cy="-167" rx="27" ry="18"/>
<text text-anchor="middle" x="289.0957" y="-163.3" font-family="Times-Roman" font-size="14.00" fill="#000000">AST</text>
</g>
<!-- Syntax&#45;&gt;AST -->
<g id="edge3" class="edge">
<title>Syntax&#45;&gt;AST</title>
<path fill="none" stroke="#000000" d="M240.1918,-311.9334C249.8235,-283.3885 268.6227,-227.6747 279.8997,-194.2537"/>
<polygon fill="#000000" stroke="#000000" points="283.2586,-195.2463 283.1395,-184.6521 276.626,-193.0082 283.2586,-195.2463"/>
<text text-anchor="middle" x="301.5957" y="-244.8" font-family="Times-Roman" font-size="14.00" fill="#000000">Corollary</text>
</g>
<!-- Semantics -->
<g id="node2" class="node">
<title>Semantics</title>
<ellipse fill="none" stroke="#000000" cx="431.0957" cy="-330" rx="59.2899" ry="18"/>
<text text-anchor="middle" x="431.0957" y="-326.3" font-family="Times-Roman" font-size="14.00" fill="#000000">Semantics</text>
</g>
<!-- Static Semantics -->
<g id="node7" class="node">
<title>Static Semantics</title>
<ellipse fill="none" stroke="#000000" cx="431.0957" cy="-167" rx="97" ry="18"/>
<text text-anchor="middle" x="431.0957" y="-163.3" font-family="Times-Roman" font-size="14.00" fill="#000000">Static Semantics</text>
</g>
<!-- Semantics&#45;&gt;Static Semantics -->
<g id="edge4" class="edge">
<title>Semantics&#45;&gt;Static Semantics</title>
<path fill="none" stroke="#000000" d="M431.0957,-311.9334C431.0957,-283.6612 431.0957,-228.7364 431.0957,-195.2173"/>
<polygon fill="#000000" stroke="#000000" points="434.5958,-195.1475 431.0957,-185.1476 427.5958,-195.1476 434.5958,-195.1475"/>
</g>
<!-- Dynamic Semantics -->
<g id="node8" class="node">
<title>Dynamic Semantics</title>
<ellipse fill="none" stroke="#000000" cx="648.0957" cy="-167" rx="102.0819" ry="18"/>
<text text-anchor="middle" x="648.0957" y="-163.3" font-family="Times-Roman" font-size="14.00" fill="#000000">Dynamic Semantics</text>
</g>
<!-- Semantics&#45;&gt;Dynamic Semantics -->
<g id="edge5" class="edge">
<title>Semantics&#45;&gt;Dynamic Semantics</title>
<path fill="none" stroke="#000000" d="M453.5012,-313.1701C492.2607,-284.0558 571.9301,-224.212 616.3678,-190.8325"/>
<polygon fill="#000000" stroke="#000000" points="618.6068,-193.5281 624.5003,-184.7237 614.4026,-187.9312 618.6068,-193.5281"/>
</g>
<!-- Pragmatics -->
<g id="node3" class="node">
<title>Pragmatics</title>
<ellipse fill="none" stroke="#000000" cx="573.0957" cy="-330" rx="64.5" ry="18"/>
<text text-anchor="middle" x="573.0957" y="-326.3" font-family="Times-Roman" font-size="14.00" fill="#000000">Pragmatics</text>
</g>
<!-- Name binding -->
<g id="node9" class="node">
<title>Name binding</title>
<ellipse fill="none" stroke="#000000" cx="294.0957" cy="-18" rx="75.5" ry="18"/>
<text text-anchor="middle" x="294.0957" y="-14.3" font-family="Times-Roman" font-size="14.00" fill="#000000">Name binding</text>
</g>
<!-- Static Semantics&#45;&gt;Name binding -->
<g id="edge6" class="edge">
<title>Static Semantics&#45;&gt;Name binding</title>
<path fill="none" stroke="#000000" d="M414.5703,-149.0271C390.3984,-122.7379 345.2796,-73.6672 317.6426,-43.6094"/>
<polygon fill="#000000" stroke="#000000" points="320.0247,-41.029 310.6797,-36.0366 314.8717,-45.7669 320.0247,-41.029"/>
</g>
<!-- Typing -->
<g id="node10" class="node">
<title>Typing</title>
<ellipse fill="none" stroke="#000000" cx="520.0957" cy="-18" rx="43" ry="18"/>
<text text-anchor="middle" x="520.0957" y="-14.3" font-family="Times-Roman" font-size="14.00" fill="#000000">Typing</text>
</g>
<!-- Static Semantics&#45;&gt;Typing -->
<g id="edge7" class="edge">
<title>Static Semantics&#45;&gt;Typing</title>
<path fill="none" stroke="#000000" d="M441.8312,-149.0271C457.4175,-122.9332 486.4101,-74.3951 504.3968,-44.2824"/>
<polygon fill="#000000" stroke="#000000" points="507.4753,-45.9539 509.5985,-35.5739 501.4657,-42.3642 507.4753,-45.9539"/>
</g>
<!-- Name binding&#45;&gt;Typing -->
<g id="edge8" class="edge">
<title>Name binding&#45;&gt;Typing</title>
<path fill="none" stroke="#000000" d="M370.0176,-18C402.3373,-18 434.657,-18 466.9766,-18"/>
<polygon fill="#000000" stroke="#000000" points="467.0069,-21.5001 477.0069,-18 467.0069,-14.5001 467.0069,-21.5001"/>
</g>
<!-- Specification -->
<g id="node11" class="node">
<title>Specification</title>
<ellipse fill="none" stroke="#000000" cx="431.0957" cy="-479" rx="80.6858" ry="18"/>
<text text-anchor="middle" x="431.0957" y="-475.3" font-family="Times-Roman" font-size="14.00" fill="#000000">Specification</text>
</g>
<!-- Specification&#45;&gt;Syntax -->
<g id="edge9" class="edge">
<title>Specification&#45;&gt;Syntax</title>
<path fill="none" stroke="#000000" d="M408.1118,-461.6162C372.2548,-434.496 303.031,-382.1389 263.5584,-352.2839"/>
<polygon fill="#000000" stroke="#000000" points="265.2272,-349.1578 255.1402,-345.9169 261.0046,-354.7408 265.2272,-349.1578"/>
</g>
<!-- Specification&#45;&gt;Semantics -->
<g id="edge10" class="edge">
<title>Specification&#45;&gt;Semantics</title>
<path fill="none" stroke="#000000" d="M431.0957,-460.7297C431.0957,-435.2604 431.0957,-388.829 431.0957,-358.7094"/>
<polygon fill="#000000" stroke="#000000" points="434.5958,-358.4197 431.0957,-348.4198 427.5958,-358.4198 434.5958,-358.4197"/>
</g>
<!-- Specification&#45;&gt;Pragmatics -->
<g id="edge11" class="edge">
<title>Specification&#45;&gt;Pragmatics</title>
<path fill="none" stroke="#000000" d="M447.9426,-461.3226C473.0299,-434.9986 520.3255,-385.3715 549.0455,-355.2358"/>
<polygon fill="#000000" stroke="#000000" points="551.9054,-357.3081 556.2708,-347.6544 546.8381,-352.4788 551.9054,-357.3081"/>
</g>
</g>
</svg>
