<?xml version="1.0" encoding="UTF-8" standalone="no"?>
<!DOCTYPE svg PUBLIC "-//W3C//DTD SVG 1.1//EN"
 "http://www.w3.org/Graphics/SVG/1.1/DTD/svg11.dtd">
<!-- Generated by graphviz version 2.38.0 (20140413.2041)
 -->
<!-- Title: Spec Pages: 1 -->
<svg width="515pt" height="367pt"
 viewBox="0.00 0.00 515.32 366.73" xmlns="http://www.w3.org/2000/svg" xmlns:xlink="http://www.w3.org/1999/xlink">
<g id="graph0" class="graph" transform="scale(1 1) rotate(0) translate(36.551 330.56)">
<title>Spec</title>
<polygon fill="white" stroke="none" points="-36.551,36.165 -36.551,-330.56 478.77,-330.56 478.77,36.165 -36.551,36.165"/>
<!-- Specification -->
<g id="node1" class="node"><title>Specification</title>
<ellipse fill="none" stroke="black" cx="110.1" cy="-163.03" rx="84.5467" ry="18"/>
<text text-anchor="middle" x="110.1" y="-158.43" font-family="Times,serif" font-size="14.00">Specification</text>
</g>
<!-- Syntax -->
<g id="node2" class="node"><title>Syntax</title>
<ellipse fill="none" stroke="black" cx="264" cy="-227.23" rx="45" ry="18"/>
<text text-anchor="middle" x="264" y="-222.63" font-family="Times,serif" font-size="14.00">Syntax</text>
</g>
<!-- Specification&#45;&gt;Syntax -->
<g id="edge1" class="edge"><title>Specification&#45;&gt;Syntax</title>
<path fill="none" stroke="black" d="M148.54,-179.07C171.39,-188.6 200.34,-200.68 223.54,-210.35"/>
<polygon fill="black" stroke="black" points="222.193,-213.58 232.77,-214.2 224.888,-207.12 222.193,-213.58"/>
</g>
<!-- Semantics -->
<g id="node3" class="node"><title>Semantics</title>
<ellipse fill="none" stroke="black" cx="227.67" cy="-17.835" rx="61.9317" ry="18"/>
<text text-anchor="middle" x="227.67" y="-13.235" font-family="Times,serif" font-size="14.00">Semantics</text>
</g>
<!-- Specification&#45;&gt;Semantics -->
<g id="edge2" class="edge"><title>Specification&#45;&gt;Semantics</title>
<path fill="none" stroke="black" d="M124.51,-145.23C145.05,-119.86 182.87,-73.168 206.56,-43.904"/>
<polygon fill="black" stroke="black" points="209.563,-45.7577 213.14,-35.785 204.125,-41.3503 209.563,-45.7577"/>
</g>
<!-- Pragmatics -->
<g id="node4" class="node"><title>Pragmatics</title>
<ellipse fill="none" stroke="black" cx="67.449" cy="-213" rx="68" ry="18"/>
<text text-anchor="middle" x="67.449" y="-208.4" font-family="Times,serif" font-size="14.00">Pragmatics</text>
</g>
<!-- Specification&#45;&gt;Pragmatics -->
<g id="edge3" class="edge"><title>Specification&#45;&gt;Pragmatics</title>
<path fill="none" stroke="black" d="M94.941,-180.79C93.056,-183 91.1,-185.29 89.14,-187.59"/>
<polygon fill="black" stroke="black" points="86.3886,-185.422 82.557,-195.3 91.7122,-189.968 86.3886,-185.422"/>
</g>
<!-- Grammar -->
<g id="node5" class="node"><title>Grammar</title>
<ellipse fill="none" stroke="black" cx="392.27" cy="-276.56" rx="50.5" ry="18"/>
<text text-anchor="middle" x="392.27" y="-271.96" font-family="Times,serif" font-size="14.00">Grammar</text>
</g>
<!-- Syntax&#45;&gt;Grammar -->
<g id="edge4" class="edge"><title>Syntax&#45;&gt;Grammar</title>
<path fill="none" stroke="black" d="M296.7,-239.81C312.34,-245.82 331.28,-253.11 348.17,-259.6"/>
<polygon fill="black" stroke="black" points="347.24,-262.992 357.83,-263.32 349.756,-256.46 347.24,-262.992"/>
<text text-anchor="middle" x="377.43" y="-237.1" font-family="Times,serif" font-size="14.00">Specification</text>
</g>
<!-- Parse Tree -->
<g id="node6" class="node"><title>Parse Tree</title>
<ellipse fill="none" stroke="black" cx="242.14" cy="-274.24" rx="68" ry="18"/>
<text text-anchor="middle" x="242.14" y="-269.64" font-family="Times,serif" font-size="14.00">Parse Tree</text>
</g>
<!-- Syntax&#45;&gt;Parse Tree -->
<g id="edge5" class="edge"><title>Syntax&#45;&gt;Parse Tree</title>
<path fill="none" stroke="black" d="M255.74,-245C255.47,-245.57 255.2,-246.15 254.94,-246.72"/>
<polygon fill="black" stroke="black" points="251.607,-245.587 250.56,-256.13 257.953,-248.541 251.607,-245.587"/>
<text text-anchor="middle" x="233.84" y="-249.26" font-family="Times,serif" font-size="14.00">Proof</text>
</g>
<!-- AST -->
<g id="node7" class="node"><title>AST</title>
<ellipse fill="none" stroke="black" cx="236.64" cy="-121.9" rx="29" ry="18"/>
<text text-anchor="middle" x="236.64" y="-117.3" font-family="Times,serif" font-size="14.00">AST</text>
</g>
<!-- Syntax&#45;&gt;AST -->
<g id="edge6" class="edge"><title>Syntax&#45;&gt;AST</title>
<path fill="none" stroke="black" d="M259.24,-208.89C254.97,-192.47 248.66,-168.19 243.79,-149.44"/>
<polygon fill="black" stroke="black" points="247.16,-148.49 241.26,-139.69 240.384,-150.249 247.16,-148.49"/>
<text text-anchor="middle" x="289.52" y="-182.57" font-family="Times,serif" font-size="14.00">Corollary</text>
</g>
</g>
</svg>
