<?xml version="1.0" encoding="UTF-8" standalone="no"?>
<!DOCTYPE svg PUBLIC "-//W3C//DTD SVG 1.1//EN"
 "http://www.w3.org/Graphics/SVG/1.1/DTD/svg11.dtd">
<!-- Generated by graphviz version 2.40.1 (0)
 -->
<!-- Title: Spec Pages: 1 -->
<svg width="796pt" height="505pt"
 viewBox="0.00 0.00 796.14 505.00" xmlns="http://www.w3.org/2000/svg" xmlns:xlink="http://www.w3.org/1999/xlink">
<g id="graph0" class="graph" transform="scale(1 1) rotate(0) translate(4 501)">
<title>Spec</title>
<polygon fill="#ffffff" stroke="transparent" points="-4,4 -4,-501 792.1367,-501 792.1367,4 -4,4"/>
<!-- Syntax -->
<g id="node1" class="node">
<title>Syntax</title>
<ellipse fill="none" stroke="#000000" cx="234.0957" cy="-330" rx="43" ry="18"/>
<text text-anchor="middle" x="234.0957" y="-326.3" font-family="Times-Roman" font-size="14.00" fill="#000000">Syntax</text>
</g>
<!-- Grammar -->
<g id="node4" class="node">
<title>Grammar</title>
<ellipse fill="none" stroke="#000000" cx="48.0957" cy="-167" rx="48.1917" ry="18"/>
<text text-anchor="middle" x="48.0957" y="-163.3" font-family="Times-Roman" font-size="14.00" fill="#000000">Grammar</text>
</g>
<!-- Syntax&#45;&gt;Grammar -->
<g id="edge1" class="edge">
<title>Syntax&#45;&gt;Grammar</title>
<path fill="none" stroke="#000000" d="M199.9133,-318.9011C168.8045,-307.3506 123.262,-286.6276 93.0957,-256 76.1027,-238.7471 64.2457,-213.7807 56.9849,-194.6789"/>
<polygon fill="#000000" stroke="#000000" points="60.191,-193.2516 53.5123,-185.027 53.6044,-195.6214 60.191,-193.2516"/>
<text text-anchor="middle" x="147.0957" y="-244.8" font-family="Times-Roman" font-size="14.00" fill="#000000">Specification</text>
</g>
<!-- Parse Tree -->
<g id="node5" class="node">
<title>Parse Tree</title>
<ellipse fill="none" stroke="#000000" cx="179.0957" cy="-167" rx="64.5" ry="18"/>
<text text-anchor="middle" x="179.0957" y="-163.3" font-family="Times-Roman" font-size="14.00" fill="#000000">Parse Tree</text>
</g>
<!-- Syntax&#45;&gt;Parse Tree -->
<g id="edge2" class="edge">
<title>Syntax&#45;&gt;Parse Tree</title>
<path fill="none" stroke="#000000" d="M227.9996,-311.9334C218.4186,-283.5388 199.7664,-228.2604 188.4704,-194.7832"/>
<polygon fill="#000000" stroke="#000000" points="191.7326,-193.5037 185.2191,-185.1476 185.1,-195.7417 191.7326,-193.5037"/>
<text text-anchor="middle" x="230.0957" y="-244.8" font-family="Times-Roman" font-size="14.00" fill="#000000">Proof</text>
</g>
<!-- AST -->
<g id="node6" class="node">
<title>AST</title>
<ellipse fill="none" stroke="#000000" cx="289.0957" cy="-167" rx="27" ry="18"/>
<text text-anchor="middle" x="289.0957" y="-163.3" font-family="Times-Roman" font-size="14.00" fill="#000000">AST</text>
</g>
<!-- Syntax&#45;&gt;AST -->
<g id="edge3" class="edge">
<title>Syntax&#45;&gt;AST</title>
<path fill="none" stroke="#000000" d="M240.1918,-311.9334C249.8235,-283.3885 268.6227,-227.6747 279.8997,-194.2537"/>
<polygon fill="#000000" stroke="#000000" points="283.2586,-195.2463 283.1395,-184.6521 276.626,-193.0082 283.2586,-195.2463"/>
<text text-anchor="middle" x="301.5957" y="-244.8" font-family="Times-Roman" font-size="14.00" fill="#000000">Corollary</text>
</g>
<!-- Semantics -->
<g id="node2" class="node">
<title>Semantics</title>
<ellipse fill="none" stroke="#000000" cx="524.0957" cy="-330" rx="59.2899" ry="18"/>
<text text-anchor="middle" x="524.0957" y="-326.3" font-family="Times-Roman" font-size="14.00" fill="#000000">Semantics</text>
</g>
<!-- Static Semantics -->
<g id="node7" class="node">
<title>Static Semantics</title>
<ellipse fill="none" stroke="#000000" cx="431.0957" cy="-167" rx="97" ry="18"/>
<text text-anchor="middle" x="431.0957" y="-163.3" font-family="Times-Roman" font-size="14.00" fill="#000000">Static Semantics</text>
</g>
<!-- Semantics&#45;&gt;Static Semantics -->
<g id="edge4" class="edge">
<title>Semantics&#45;&gt;Static Semantics</title>
<path fill="none" stroke="#000000" d="M513.9661,-312.2459C497.7001,-283.7367 465.6485,-227.5602 446.5242,-194.0413"/>
<polygon fill="#000000" stroke="#000000" points="449.4925,-192.1811 441.4968,-185.2299 443.4125,-195.6501 449.4925,-192.1811"/>
</g>
<!-- Typing -->
<g id="node8" class="node">
<title>Typing</title>
<ellipse fill="none" stroke="#000000" cx="494.0957" cy="-18" rx="43" ry="18"/>
<text text-anchor="middle" x="494.0957" y="-14.3" font-family="Times-Roman" font-size="14.00" fill="#000000">Typing</text>
</g>
<!-- Semantics&#45;&gt;Typing -->
<g id="edge5" class="edge">
<title>Semantics&#45;&gt;Typing</title>
<path fill="none" stroke="#000000" d="M540.4707,-312.4413C548.3438,-302.1779 556.0957,-288.5141 556.0957,-274.5 556.0957,-274.5 556.0957,-274.5 556.0957,-73.5 556.0957,-57.9756 545.1709,-45.7051 532.4931,-36.6922"/>
<polygon fill="#000000" stroke="#000000" points="534.311,-33.7 524.0061,-31.2384 530.5267,-39.589 534.311,-33.7"/>
</g>
<!-- Dynamic Semantics -->
<g id="node9" class="node">
<title>Dynamic Semantics</title>
<ellipse fill="none" stroke="#000000" cx="686.0957" cy="-167" rx="102.0819" ry="18"/>
<text text-anchor="middle" x="686.0957" y="-163.3" font-family="Times-Roman" font-size="14.00" fill="#000000">Dynamic Semantics</text>
</g>
<!-- Semantics&#45;&gt;Dynamic Semantics -->
<g id="edge6" class="edge">
<title>Semantics&#45;&gt;Dynamic Semantics</title>
<path fill="none" stroke="#000000" d="M547.1728,-313.145C554.7009,-307.3338 562.9548,-300.617 570.0957,-294 605.4288,-261.259 642.2922,-219.3533 664.7279,-192.833"/>
<polygon fill="#000000" stroke="#000000" points="667.4533,-195.0301 671.2099,-185.1236 662.0955,-190.5253 667.4533,-195.0301"/>
</g>
<!-- Pragmatics -->
<g id="node3" class="node">
<title>Pragmatics</title>
<ellipse fill="none" stroke="#000000" cx="666.0957" cy="-330" rx="64.5" ry="18"/>
<text text-anchor="middle" x="666.0957" y="-326.3" font-family="Times-Roman" font-size="14.00" fill="#000000">Pragmatics</text>
</g>
<!-- Static Semantics&#45;&gt;Typing -->
<g id="edge7" class="edge">
<title>Static Semantics&#45;&gt;Typing</title>
<path fill="none" stroke="#000000" d="M438.695,-149.0271C449.5741,-123.2972 469.6801,-75.745 482.4457,-45.5534"/>
<polygon fill="#000000" stroke="#000000" points="485.7988,-46.6102 486.4695,-36.0366 479.3514,-43.8841 485.7988,-46.6102"/>
</g>
<!-- Specification -->
<g id="node10" class="node">
<title>Specification</title>
<ellipse fill="none" stroke="#000000" cx="524.0957" cy="-479" rx="80.6858" ry="18"/>
<text text-anchor="middle" x="524.0957" y="-475.3" font-family="Times-Roman" font-size="14.00" fill="#000000">Specification</text>
</g>
<!-- Specification&#45;&gt;Syntax -->
<g id="edge8" class="edge">
<title>Specification&#45;&gt;Syntax</title>
<path fill="none" stroke="#000000" d="M491.9526,-462.4851C437.6116,-434.5651 327.9275,-378.2101 270.708,-348.8111"/>
<polygon fill="#000000" stroke="#000000" points="272.1523,-345.6183 261.6581,-344.1614 268.9532,-351.8446 272.1523,-345.6183"/>
</g>
<!-- Specification&#45;&gt;Semantics -->
<g id="edge9" class="edge">
<title>Specification&#45;&gt;Semantics</title>
<path fill="none" stroke="#000000" d="M524.0957,-460.7297C524.0957,-435.2604 524.0957,-388.829 524.0957,-358.7094"/>
<polygon fill="#000000" stroke="#000000" points="527.5958,-358.4197 524.0957,-348.4198 520.5958,-358.4198 527.5958,-358.4197"/>
</g>
<!-- Specification&#45;&gt;Pragmatics -->
<g id="edge10" class="edge">
<title>Specification&#45;&gt;Pragmatics</title>
<path fill="none" stroke="#000000" d="M540.9426,-461.3226C566.0299,-434.9986 613.3255,-385.3715 642.0455,-355.2358"/>
<polygon fill="#000000" stroke="#000000" points="644.9054,-357.3081 649.2708,-347.6544 639.8381,-352.4788 644.9054,-357.3081"/>
</g>
</g>
</svg>
