<?xml version="1.0" encoding="UTF-8" standalone="no"?>
<!DOCTYPE svg PUBLIC "-//W3C//DTD SVG 1.1//EN"
 "http://www.w3.org/Graphics/SVG/1.1/DTD/svg11.dtd">
<!-- Generated by graphviz version 2.38.0 (20140413.2041)
 -->
<!-- Title: Operational Pages: 1 -->
<svg width="1055pt" height="233pt"
 viewBox="0.00 0.00 1055.10 233.00" xmlns="http://www.w3.org/2000/svg" xmlns:xlink="http://www.w3.org/1999/xlink">
<g id="graph0" class="graph" transform="scale(1 1) rotate(0) translate(4.188 229)">
<title>Operational</title>
<polygon fill="white" stroke="none" points="-4.188,4 -4.188,-229 1050.92,-229 1050.92,4 -4.188,4"/>
<!-- Initial configuration -->
<g id="node1" class="node"><title>Initial configuration</title>
<ellipse fill="none" stroke="black" cx="521.45" cy="-180" rx="129.5" ry="18"/>
<text text-anchor="middle" x="521.45" y="-175.4" font-family="Times,serif" font-size="14.00">Initial configuration</text>
</g>
<!-- Intermediate configuration 1 -->
<g id="node2" class="node"><title>Intermediate configuration 1</title>
<ellipse fill="none" stroke="black" cx="521.45" cy="-126" rx="169.093" ry="18"/>
<text text-anchor="middle" x="521.45" y="-121.4" font-family="Times,serif" font-size="14.00">Intermediate configuration 1</text>
</g>
<!-- Initial configuration&#45;&gt;Intermediate configuration 1 -->
<g id="edge1" class="edge"><title>Initial configuration&#45;&gt;Intermediate configuration 1</title>
<path fill="none" stroke="black" d="M521.45,-161.79C521.45,-159.31 521.45,-156.83 521.45,-154.34"/>
<polygon fill="black" stroke="black" points="524.95,-154.14 521.45,-144.14 517.95,-154.14 524.95,-154.14"/>
</g>
<!-- Intermediate configuration k -->
<g id="node3" class="node"><title>Intermediate configuration k</title>
<ellipse fill="none" stroke="black" cx="521.45" cy="-72" rx="169.093" ry="18"/>
<text text-anchor="middle" x="521.45" y="-67.4" font-family="Times,serif" font-size="14.00">Intermediate configuration k</text>
</g>
<!-- Intermediate configuration 1&#45;&gt;Intermediate configuration k -->
<g id="edge2" class="edge"><title>Intermediate configuration 1&#45;&gt;Intermediate configuration k</title>
<path fill="none" stroke="black" d="M521.45,-107.79C521.45,-105.31 521.45,-102.83 521.45,-100.34"/>
<polygon fill="black" stroke="black" points="524.95,-100.141 521.45,-90.141 517.95,-100.141 524.95,-100.141"/>
</g>
<!-- Final configuration -->
<g id="node4" class="node"><title>Final configuration</title>
<ellipse fill="none" stroke="black" cx="521.45" cy="-18" rx="118.129" ry="18"/>
<text text-anchor="middle" x="521.45" y="-13.4" font-family="Times,serif" font-size="14.00">Final configuration</text>
</g>
<!-- Intermediate configuration k&#45;&gt;Final configuration -->
<g id="edge3" class="edge"><title>Intermediate configuration k&#45;&gt;Final configuration</title>
<path fill="none" stroke="black" d="M521.45,-53.79C521.45,-51.308 521.45,-48.826 521.45,-46.344"/>
<polygon fill="black" stroke="black" points="524.95,-46.141 521.45,-36.141 517.95,-46.141 524.95,-46.141"/>
</g>
<!-- Output Function -->
<g id="node5" class="node"><title>Output Function</title>
<ellipse fill="none" stroke="black" cx="823.09" cy="-18" rx="96.6964" ry="18"/>
<text text-anchor="middle" x="823.09" y="-13.4" font-family="Times,serif" font-size="14.00">Output Function</text>
</g>
<!-- Final configuration&#45;&gt;Output Function -->
<g id="edge4" class="edge"><title>Final configuration&#45;&gt;Output Function</title>
<path fill="none" stroke="black" d="M639.59,-18C664.83,-18 691.38,-18 716.17,-18"/>
<polygon fill="black" stroke="black" points="716.31,-21.5001 726.31,-18 716.31,-14.5001 716.31,-21.5001"/>
</g>
<!-- Answer -->
<g id="node6" class="node"><title>Answer</title>
<ellipse fill="none" stroke="black" cx="1001.3" cy="-18" rx="45.7319" ry="18"/>
<text text-anchor="middle" x="1001.3" y="-13.4" font-family="Times,serif" font-size="14.00">Answer</text>
</g>
<!-- Output Function&#45;&gt;Answer -->
<g id="edge5" class="edge"><title>Output Function&#45;&gt;Answer</title>
<path fill="none" stroke="black" d="M919.94,-18C928.68,-18 937.32,-18 945.5,-18"/>
<polygon fill="black" stroke="black" points="945.61,-21.5001 955.61,-18 945.61,-14.5001 945.61,-21.5001"/>
</g>
<!-- Program -->
<g id="node7" class="node"><title>Program</title>
<ellipse fill="none" stroke="black" cx="50.312" cy="-207" rx="50.5" ry="18"/>
<text text-anchor="middle" x="50.312" y="-202.4" font-family="Times,serif" font-size="14.00">Program</text>
</g>
<!-- Input Function -->
<g id="node8" class="node"><title>Input Function</title>
<ellipse fill="none" stroke="black" cx="226.51" cy="-180" rx="90" ry="18"/>
<text text-anchor="middle" x="226.51" y="-175.4" font-family="Times,serif" font-size="14.00">Input Function</text>
</g>
<!-- Program&#45;&gt;Input Function -->
<g id="edge6" class="edge"><title>Program&#45;&gt;Input Function</title>
<path fill="none" stroke="black" d="M97.081,-199.91C111.69,-197.64 128.32,-195.06 144.65,-192.53"/>
<polygon fill="black" stroke="black" points="145.411,-195.954 154.76,-190.97 144.343,-189.036 145.411,-195.954"/>
</g>
<!-- Input Function&#45;&gt;Initial configuration -->
<g id="edge7" class="edge"><title>Input Function&#45;&gt;Initial configuration</title>
<path fill="none" stroke="black" d="M316.6,-180C337.18,-180 359.56,-180 381.7,-180"/>
<polygon fill="black" stroke="black" points="381.85,-183.5 391.85,-180 381.85,-176.5 381.85,-183.5"/>
</g>
<!-- Inputs -->
<g id="node9" class="node"><title>Inputs</title>
<ellipse fill="none" stroke="black" cx="50.312" cy="-153" rx="45" ry="18"/>
<text text-anchor="middle" x="50.312" y="-148.4" font-family="Times,serif" font-size="14.00">Inputs</text>
</g>
<!-- Inputs&#45;&gt;Input Function -->
<g id="edge8" class="edge"><title>Inputs&#45;&gt;Input Function</title>
<path fill="none" stroke="black" d="M92.595,-159.4C108.3,-161.83 126.78,-164.7 144.89,-167.5"/>
<polygon fill="black" stroke="black" points="144.472,-170.977 154.89,-169.05 145.544,-164.06 144.472,-170.977"/>
</g>
</g>
</svg>
