<?xml version="1.0" encoding="UTF-8" standalone="no"?>
<!DOCTYPE svg PUBLIC "-//W3C//DTD SVG 1.1//EN"
 "http://www.w3.org/Graphics/SVG/1.1/DTD/svg11.dtd">
<!-- Generated by graphviz version 2.38.0 (20140413.2041)
 -->
<!-- Title: Operational Pages: 1 -->
<svg width="346pt" height="548pt"
 viewBox="0.00 0.00 346.09 548.00" xmlns="http://www.w3.org/2000/svg" xmlns:xlink="http://www.w3.org/1999/xlink">
<g id="graph0" class="graph" transform="scale(1 1) rotate(0) translate(3.99674 544)">
<title>Operational</title>
<polygon fill="white" stroke="none" points="-3.99674,4 -3.99674,-544 342.097,-544 342.097,4 -3.99674,4"/>
<!-- Program -->
<g id="node1" class="node"><title>Program</title>
<ellipse fill="none" stroke="black" cx="113.05" cy="-522" rx="50.5" ry="18"/>
<text text-anchor="middle" x="113.05" y="-517.4" font-family="Times,serif" font-size="14.00">Program</text>
</g>
<!-- Input Function -->
<g id="node2" class="node"><title>Input Function</title>
<ellipse fill="none" stroke="black" cx="169.05" cy="-450" rx="90" ry="18"/>
<text text-anchor="middle" x="169.05" y="-445.4" font-family="Times,serif" font-size="14.00">Input Function</text>
</g>
<!-- Program&#45;&gt;Input Function -->
<g id="edge1" class="edge"><title>Program&#45;&gt;Input Function</title>
<path fill="none" stroke="black" d="M126.32,-504.41C133.12,-495.91 141.55,-485.37 149.12,-475.91"/>
<polygon fill="black" stroke="black" points="151.966,-477.955 155.48,-467.96 146.5,-473.582 151.966,-477.955"/>
</g>
<!-- Initial configuration -->
<g id="node3" class="node"><title>Initial configuration</title>
<ellipse fill="none" stroke="black" cx="169.05" cy="-378" rx="129.5" ry="18"/>
<text text-anchor="middle" x="169.05" y="-373.4" font-family="Times,serif" font-size="14.00">Initial configuration</text>
</g>
<!-- Input Function&#45;&gt;Initial configuration -->
<g id="edge2" class="edge"><title>Input Function&#45;&gt;Initial configuration</title>
<path fill="none" stroke="black" d="M169.05,-431.7C169.05,-423.98 169.05,-414.71 169.05,-406.11"/>
<polygon fill="black" stroke="black" points="172.55,-406.1 169.05,-396.1 165.55,-406.1 172.55,-406.1"/>
</g>
<!-- Intermediate configuration 1 -->
<g id="node4" class="node"><title>Intermediate configuration 1</title>
<ellipse fill="none" stroke="black" cx="169.05" cy="-306" rx="169.093" ry="18"/>
<text text-anchor="middle" x="169.05" y="-301.4" font-family="Times,serif" font-size="14.00">Intermediate configuration 1</text>
</g>
<!-- Initial configuration&#45;&gt;Intermediate configuration 1 -->
<g id="edge3" class="edge"><title>Initial configuration&#45;&gt;Intermediate configuration 1</title>
<path fill="none" stroke="black" d="M169.05,-359.7C169.05,-351.98 169.05,-342.71 169.05,-334.11"/>
<polygon fill="black" stroke="black" points="172.55,-334.1 169.05,-324.1 165.55,-334.1 172.55,-334.1"/>
</g>
<!-- Intermediate configuration k -->
<g id="node5" class="node"><title>Intermediate configuration k</title>
<ellipse fill="none" stroke="black" cx="169.05" cy="-234" rx="169.093" ry="18"/>
<text text-anchor="middle" x="169.05" y="-229.4" font-family="Times,serif" font-size="14.00">Intermediate configuration k</text>
</g>
<!-- Intermediate configuration 1&#45;&gt;Intermediate configuration k -->
<g id="edge4" class="edge"><title>Intermediate configuration 1&#45;&gt;Intermediate configuration k</title>
<path fill="none" stroke="black" d="M169.05,-287.7C169.05,-279.98 169.05,-270.71 169.05,-262.11"/>
<polygon fill="black" stroke="black" points="172.55,-262.1 169.05,-252.1 165.55,-262.1 172.55,-262.1"/>
</g>
<!-- Final configuration -->
<g id="node7" class="node"><title>Final configuration</title>
<ellipse fill="none" stroke="black" cx="169.05" cy="-162" rx="118.129" ry="18"/>
<text text-anchor="middle" x="169.05" y="-157.4" font-family="Times,serif" font-size="14.00">Final configuration</text>
</g>
<!-- Intermediate configuration k&#45;&gt;Final configuration -->
<g id="edge6" class="edge"><title>Intermediate configuration k&#45;&gt;Final configuration</title>
<path fill="none" stroke="black" d="M169.05,-215.7C169.05,-207.98 169.05,-198.71 169.05,-190.11"/>
<polygon fill="black" stroke="black" points="172.55,-190.1 169.05,-180.1 165.55,-190.1 172.55,-190.1"/>
</g>
<!-- Inputs -->
<g id="node6" class="node"><title>Inputs</title>
<ellipse fill="none" stroke="black" cx="226.05" cy="-522" rx="45" ry="18"/>
<text text-anchor="middle" x="226.05" y="-517.4" font-family="Times,serif" font-size="14.00">Inputs</text>
</g>
<!-- Inputs&#45;&gt;Input Function -->
<g id="edge5" class="edge"><title>Inputs&#45;&gt;Input Function</title>
<path fill="none" stroke="black" d="M212.83,-504.76C205.91,-496.27 197.28,-485.68 189.52,-476.15"/>
<polygon fill="black" stroke="black" points="192.015,-473.67 182.99,-468.12 186.584,-478.087 192.015,-473.67"/>
</g>
<!-- Output Function -->
<g id="node8" class="node"><title>Output Function</title>
<ellipse fill="none" stroke="black" cx="169.05" cy="-90" rx="96.6964" ry="18"/>
<text text-anchor="middle" x="169.05" y="-85.4" font-family="Times,serif" font-size="14.00">Output Function</text>
</g>
<!-- Final configuration&#45;&gt;Output Function -->
<g id="edge7" class="edge"><title>Final configuration&#45;&gt;Output Function</title>
<path fill="none" stroke="black" d="M169.05,-143.7C169.05,-135.98 169.05,-126.71 169.05,-118.11"/>
<polygon fill="black" stroke="black" points="172.55,-118.1 169.05,-108.1 165.55,-118.1 172.55,-118.1"/>
</g>
<!-- Answer -->
<g id="node9" class="node"><title>Answer</title>
<ellipse fill="none" stroke="black" cx="169.05" cy="-18" rx="45.7319" ry="18"/>
<text text-anchor="middle" x="169.05" y="-13.4" font-family="Times,serif" font-size="14.00">Answer</text>
</g>
<!-- Output Function&#45;&gt;Answer -->
<g id="edge8" class="edge"><title>Output Function&#45;&gt;Answer</title>
<path fill="none" stroke="black" d="M169.05,-71.697C169.05,-63.983 169.05,-54.712 169.05,-46.112"/>
<polygon fill="black" stroke="black" points="172.55,-46.104 169.05,-36.104 165.55,-46.104 172.55,-46.104"/>
</g>
</g>
</svg>
