<?xml version="1.0" encoding="UTF-8" standalone="no"?>
<!DOCTYPE svg PUBLIC "-//W3C//DTD SVG 1.1//EN"
 "http://www.w3.org/Graphics/SVG/1.1/DTD/svg11.dtd">
<!-- Generated by graphviz version 2.38.0 (20140413.2041)
 -->
<!-- Title: Operational Pages: 1 -->
<svg width="1234pt" height="332pt"
 viewBox="0.00 0.00 1233.59 332.00" xmlns="http://www.w3.org/2000/svg" xmlns:xlink="http://www.w3.org/1999/xlink">
<g id="graph0" class="graph" transform="scale(1 1) rotate(0) translate(4.03 328)">
<title>Operational</title>
<polygon fill="white" stroke="none" points="-4.03,4 -4.03,-328 1229.56,-328 1229.56,4 -4.03,4"/>
<!-- Initial configuration -->
<g id="node1" class="node"><title>Initial configuration</title>
<ellipse fill="none" stroke="black" cx="129.47" cy="-162" rx="129.5" ry="18"/>
<text text-anchor="middle" x="129.47" y="-157.4" font-family="Times,serif" font-size="14.00">Initial configuration</text>
</g>
<!-- Intermediate configuration 1 -->
<g id="node2" class="node"><title>Intermediate configuration 1</title>
<ellipse fill="none" stroke="black" cx="446.47" cy="-162" rx="169.093" ry="18"/>
<text text-anchor="middle" x="446.47" y="-157.4" font-family="Times,serif" font-size="14.00">Intermediate configuration 1</text>
</g>
<!-- Initial configuration&#45;&gt;Intermediate configuration 1 -->
<g id="edge1" class="edge"><title>Initial configuration&#45;&gt;Intermediate configuration 1</title>
<path fill="none" stroke="black" d="M259.18,-162C261.79,-162 264.41,-162 267.02,-162"/>
<polygon fill="black" stroke="black" points="267.1,-165.5 277.1,-162 267.1,-158.5 267.1,-165.5"/>
</g>
<!-- Intermediate configuration k -->
<g id="node3" class="node"><title>Intermediate configuration k</title>
<ellipse fill="none" stroke="black" cx="802.47" cy="-162" rx="169.093" ry="18"/>
<text text-anchor="middle" x="802.47" y="-157.4" font-family="Times,serif" font-size="14.00">Intermediate configuration k</text>
</g>
<!-- Intermediate configuration 1&#45;&gt;Intermediate configuration k -->
<g id="edge2" class="edge"><title>Intermediate configuration 1&#45;&gt;Intermediate configuration k</title>
<path fill="none" stroke="black" d="M615.78,-162C618.24,-162 620.7,-162 623.16,-162"/>
<polygon fill="black" stroke="black" points="623.28,-165.5 633.28,-162 623.28,-158.5 623.28,-165.5"/>
</g>
<!-- Final configuration -->
<g id="node4" class="node"><title>Final configuration</title>
<ellipse fill="none" stroke="black" cx="1107.5" cy="-162" rx="118.129" ry="18"/>
<text text-anchor="middle" x="1107.5" y="-157.4" font-family="Times,serif" font-size="14.00">Final configuration</text>
</g>
<!-- Intermediate configuration k&#45;&gt;Final configuration -->
<g id="edge3" class="edge"><title>Intermediate configuration k&#45;&gt;Final configuration</title>
<path fill="none" stroke="black" d="M971.65,-162C974.11,-162 976.57,-162 979.03,-162"/>
<polygon fill="black" stroke="black" points="979.16,-165.5 989.16,-162 979.16,-158.5 979.16,-165.5"/>
</g>
<!-- Output Function -->
<g id="node5" class="node"><title>Output Function</title>
<ellipse fill="none" stroke="black" cx="1107.5" cy="-90" rx="96.6964" ry="18"/>
<text text-anchor="middle" x="1107.5" y="-85.4" font-family="Times,serif" font-size="14.00">Output Function</text>
</g>
<!-- Final configuration&#45;&gt;Output Function -->
<g id="edge4" class="edge"><title>Final configuration&#45;&gt;Output Function</title>
<path fill="none" stroke="black" d="M1107.5,-143.7C1107.5,-135.98 1107.5,-126.71 1107.5,-118.11"/>
<polygon fill="black" stroke="black" points="1111,-118.1 1107.5,-108.1 1104,-118.1 1111,-118.1"/>
</g>
<!-- Answer -->
<g id="node6" class="node"><title>Answer</title>
<ellipse fill="none" stroke="black" cx="1107.5" cy="-18" rx="45.7319" ry="18"/>
<text text-anchor="middle" x="1107.5" y="-13.4" font-family="Times,serif" font-size="14.00">Answer</text>
</g>
<!-- Output Function&#45;&gt;Answer -->
<g id="edge5" class="edge"><title>Output Function&#45;&gt;Answer</title>
<path fill="none" stroke="black" d="M1107.5,-71.697C1107.5,-63.983 1107.5,-54.712 1107.5,-46.112"/>
<polygon fill="black" stroke="black" points="1111,-46.104 1107.5,-36.104 1104,-46.104 1111,-46.104"/>
</g>
<!-- Program -->
<g id="node7" class="node"><title>Program</title>
<ellipse fill="none" stroke="black" cx="73.468" cy="-306" rx="50.5" ry="18"/>
<text text-anchor="middle" x="73.468" y="-301.4" font-family="Times,serif" font-size="14.00">Program</text>
</g>
<!-- Input Function -->
<g id="node8" class="node"><title>Input Function</title>
<ellipse fill="none" stroke="black" cx="129.47" cy="-234" rx="90" ry="18"/>
<text text-anchor="middle" x="129.47" y="-229.4" font-family="Times,serif" font-size="14.00">Input Function</text>
</g>
<!-- Program&#45;&gt;Input Function -->
<g id="edge6" class="edge"><title>Program&#45;&gt;Input Function</title>
<path fill="none" stroke="black" d="M86.74,-288.41C93.544,-279.91 101.97,-269.37 109.54,-259.91"/>
<polygon fill="black" stroke="black" points="112.386,-261.955 115.9,-251.96 106.92,-257.582 112.386,-261.955"/>
</g>
<!-- Input Function&#45;&gt;Initial configuration -->
<g id="edge7" class="edge"><title>Input Function&#45;&gt;Initial configuration</title>
<path fill="none" stroke="black" d="M129.47,-215.7C129.47,-207.98 129.47,-198.71 129.47,-190.11"/>
<polygon fill="black" stroke="black" points="132.97,-190.1 129.47,-180.1 125.97,-190.1 132.97,-190.1"/>
</g>
<!-- Inputs -->
<g id="node9" class="node"><title>Inputs</title>
<ellipse fill="none" stroke="black" cx="186.47" cy="-306" rx="45" ry="18"/>
<text text-anchor="middle" x="186.47" y="-301.4" font-family="Times,serif" font-size="14.00">Inputs</text>
</g>
<!-- Inputs&#45;&gt;Input Function -->
<g id="edge8" class="edge"><title>Inputs&#45;&gt;Input Function</title>
<path fill="none" stroke="black" d="M173.25,-288.76C166.33,-280.27 157.71,-269.68 149.94,-260.15"/>
<polygon fill="black" stroke="black" points="152.435,-257.67 143.41,-252.12 147.004,-262.087 152.435,-257.67"/>
</g>
</g>
</svg>
