<?xml version="1.0" encoding="UTF-8" standalone="no"?>
<!DOCTYPE svg PUBLIC "-//W3C//DTD SVG 1.1//EN"
 "http://www.w3.org/Graphics/SVG/1.1/DTD/svg11.dtd">
<!-- Generated by graphviz version 2.38.0 (20140413.2041)
 -->
<!-- Title: Operational Pages: 1 -->
<svg width="1996pt" height="98pt"
 viewBox="0.00 0.00 1996.30 98.00" xmlns="http://www.w3.org/2000/svg" xmlns:xlink="http://www.w3.org/1999/xlink">
<g id="graph0" class="graph" transform="scale(1 1) rotate(0) translate(4.188 94)">
<title>Operational</title>
<polygon fill="white" stroke="none" points="-4.188,4 -4.188,-94 1992.12,-94 1992.12,4 -4.188,4"/>
<!-- Initial configuration -->
<g id="node1" class="node"><title>Initial configuration</title>
<ellipse fill="none" stroke="black" cx="481.87" cy="-45" rx="129.5" ry="18"/>
<text text-anchor="middle" x="481.87" y="-40.4" font-family="Times,serif" font-size="14.00">Initial configuration</text>
</g>
<!-- Intermediate configuration 1 -->
<g id="node2" class="node"><title>Intermediate configuration 1</title>
<ellipse fill="none" stroke="black" cx="816.39" cy="-45" rx="169.093" ry="18"/>
<text text-anchor="middle" x="816.39" y="-40.4" font-family="Times,serif" font-size="14.00">Intermediate configuration 1</text>
</g>
<!-- Initial configuration&#45;&gt;Intermediate configuration 1 -->
<g id="edge1" class="edge"><title>Initial configuration&#45;&gt;Intermediate configuration 1</title>
<path fill="none" stroke="black" d="M611.43,-45C619.9,-45 628.51,-45 637.17,-45"/>
<polygon fill="black" stroke="black" points="637.34,-48.5001 647.34,-45 637.34,-41.5001 637.34,-48.5001"/>
</g>
<!-- Intermediate configuration k -->
<g id="node3" class="node"><title>Intermediate configuration k</title>
<ellipse fill="none" stroke="black" cx="1190.5" cy="-45" rx="169.093" ry="18"/>
<text text-anchor="middle" x="1190.5" y="-40.4" font-family="Times,serif" font-size="14.00">Intermediate configuration k</text>
</g>
<!-- Intermediate configuration 1&#45;&gt;Intermediate configuration k -->
<g id="edge2" class="edge"><title>Intermediate configuration 1&#45;&gt;Intermediate configuration k</title>
<path fill="none" stroke="black" d="M985.47,-45C994.05,-45 1002.7,-45 1011.3,-45"/>
<polygon fill="black" stroke="black" points="1011.4,-48.5001 1021.4,-45 1011.4,-41.5001 1011.4,-48.5001"/>
</g>
<!-- Final configuration -->
<g id="node4" class="node"><title>Final configuration</title>
<ellipse fill="none" stroke="black" cx="1513.6" cy="-45" rx="118.129" ry="18"/>
<text text-anchor="middle" x="1513.6" y="-40.4" font-family="Times,serif" font-size="14.00">Final configuration</text>
</g>
<!-- Intermediate configuration k&#45;&gt;Final configuration -->
<g id="edge3" class="edge"><title>Intermediate configuration k&#45;&gt;Final configuration</title>
<path fill="none" stroke="black" d="M1359.6,-45C1368.1,-45 1376.6,-45 1384.9,-45"/>
<polygon fill="black" stroke="black" points="1385.1,-48.5001 1395.1,-45 1385.1,-41.5001 1385.1,-48.5001"/>
</g>
<!-- Output Function -->
<g id="node5" class="node"><title>Output Function</title>
<ellipse fill="none" stroke="black" cx="1764.3" cy="-45" rx="96.6964" ry="18"/>
<text text-anchor="middle" x="1764.3" y="-40.4" font-family="Times,serif" font-size="14.00">Output Function</text>
</g>
<!-- Final configuration&#45;&gt;Output Function -->
<g id="edge4" class="edge"><title>Final configuration&#45;&gt;Output Function</title>
<path fill="none" stroke="black" d="M1632,-45C1640.4,-45 1648.9,-45 1657.2,-45"/>
<polygon fill="black" stroke="black" points="1657.3,-48.5001 1667.3,-45 1657.3,-41.5001 1657.3,-48.5001"/>
</g>
<!-- Answer -->
<g id="node6" class="node"><title>Answer</title>
<ellipse fill="none" stroke="black" cx="1942.5" cy="-45" rx="45.7319" ry="18"/>
<text text-anchor="middle" x="1942.5" y="-40.4" font-family="Times,serif" font-size="14.00">Answer</text>
</g>
<!-- Output Function&#45;&gt;Answer -->
<g id="edge5" class="edge"><title>Output Function&#45;&gt;Answer</title>
<path fill="none" stroke="black" d="M1861.1,-45C1869.8,-45 1878.5,-45 1886.7,-45"/>
<polygon fill="black" stroke="black" points="1886.8,-48.5001 1896.8,-45 1886.8,-41.5001 1886.8,-48.5001"/>
</g>
<!-- Program -->
<g id="node7" class="node"><title>Program</title>
<ellipse fill="none" stroke="black" cx="50.312" cy="-72" rx="50.5" ry="18"/>
<text text-anchor="middle" x="50.312" y="-67.4" font-family="Times,serif" font-size="14.00">Program</text>
</g>
<!-- Input Function -->
<g id="node8" class="node"><title>Input Function</title>
<ellipse fill="none" stroke="black" cx="226.51" cy="-45" rx="90" ry="18"/>
<text text-anchor="middle" x="226.51" y="-40.4" font-family="Times,serif" font-size="14.00">Input Function</text>
</g>
<!-- Program&#45;&gt;Input Function -->
<g id="edge6" class="edge"><title>Program&#45;&gt;Input Function</title>
<path fill="none" stroke="black" d="M97.081,-64.906C111.69,-62.642 128.32,-60.064 144.65,-57.533"/>
<polygon fill="black" stroke="black" points="145.414,-60.9564 154.76,-55.966 144.342,-54.039 145.414,-60.9564"/>
</g>
<!-- Input Function&#45;&gt;Initial configuration -->
<g id="edge7" class="edge"><title>Input Function&#45;&gt;Initial configuration</title>
<path fill="none" stroke="black" d="M316.48,-45C324.78,-45 333.32,-45 341.94,-45"/>
<polygon fill="black" stroke="black" points="342.07,-48.5001 352.07,-45 342.07,-41.5001 342.07,-48.5001"/>
</g>
<!-- Inputs -->
<g id="node9" class="node"><title>Inputs</title>
<ellipse fill="none" stroke="black" cx="50.312" cy="-18" rx="45" ry="18"/>
<text text-anchor="middle" x="50.312" y="-13.4" font-family="Times,serif" font-size="14.00">Inputs</text>
</g>
<!-- Inputs&#45;&gt;Input Function -->
<g id="edge8" class="edge"><title>Inputs&#45;&gt;Input Function</title>
<path fill="none" stroke="black" d="M92.595,-24.399C108.3,-26.833 126.78,-29.698 144.89,-32.504"/>
<polygon fill="black" stroke="black" points="144.472,-35.9809 154.89,-34.054 145.544,-29.0635 144.472,-35.9809"/>
</g>
</g>
</svg>
