<?xml version="1.0" encoding="UTF-8" standalone="no"?>
<!DOCTYPE svg PUBLIC "-//W3C//DTD SVG 1.1//EN"
 "http://www.w3.org/Graphics/SVG/1.1/DTD/svg11.dtd">
<!-- Generated by graphviz version 2.38.0 (20140413.2041)
 -->
<!-- Title: Syntax Pages: 1 -->
<svg width="354pt" height="316pt"
 viewBox="0.00 0.00 353.75 315.80" xmlns="http://www.w3.org/2000/svg" xmlns:xlink="http://www.w3.org/1999/xlink">
<g id="graph0" class="graph" transform="scale(1 1) rotate(0) translate(180.174 184.04)">
<title>Syntax</title>
<polygon fill="white" stroke="none" points="-180.174,131.76 -180.174,-184.04 173.58,-184.04 173.58,131.76 -180.174,131.76"/>
<!-- term -->
<g id="node1" class="node"><title>term</title>
<ellipse fill="none" stroke="black" cx="-10.809" cy="63.85" rx="33.5821" ry="18"/>
<text text-anchor="middle" x="-10.809" y="68.45" font-family="Times,serif" font-size="14.00">term</text>
</g>
<!-- factor -->
<g id="node2" class="node"><title>factor</title>
<ellipse fill="none" stroke="black" cx="-44.699" cy="-8.5529" rx="45" ry="18"/>
<text text-anchor="middle" x="-44.699" y="-3.9529" font-family="Times,serif" font-size="14.00">factor</text>
</g>
<!-- term&#45;&gt;factor -->
<g id="edge1" class="edge"><title>term&#45;&gt;factor</title>
<path fill="none" stroke="black" d="M-19.013,46.323C-22.909,37.999 -27.655,27.86 -32.002,18.573"/>
<polygon fill="black" stroke="black" points="-35.2658,19.8562 -36.335,9.3154 -28.9259,16.8887 -35.2658,19.8562"/>
</g>
<!-- seq_term -->
<g id="node3" class="node"><title>seq_term</title>
<ellipse fill="none" stroke="black" cx="-83.268" cy="55.672" rx="56.5" ry="18"/>
<text text-anchor="middle" x="-83.268" y="60.272" font-family="Times,serif" font-size="14.00">seq_term</text>
</g>
<!-- term&#45;&gt;seq_term -->
<g id="edge2" class="edge"><title>term&#45;&gt;seq_term</title>
<path fill="none" stroke="black" d="M-43.977,66.866C-44.053,66.858 -44.128,66.851 -44.204,66.844"/>
<polygon fill="black" stroke="black" points="-34.8175,71.2784 -44.43,66.822 -34.1365,64.3113 -34.8175,71.2784"/>
</g>
<!-- atom -->
<g id="node4" class="node"><title>atom</title>
<ellipse fill="none" stroke="black" cx="17.846" cy="-31.806" rx="33.5821" ry="18"/>
<text text-anchor="middle" x="17.846" y="-27.206" font-family="Times,serif" font-size="14.00">atom</text>
</g>
<!-- factor&#45;&gt;atom -->
<g id="edge3" class="edge"><title>factor&#45;&gt;atom</title>
<path fill="none" stroke="black" d="M-11.595,-20.861C-11.448,-20.915 -11.302,-20.97 -11.155,-21.024"/>
<polygon fill="black" stroke="black" points="-20.433,-21.3076 -9.84,-21.513 -17.9929,-14.7466 -20.433,-21.3076"/>
</g>
<!-- seq_factor -->
<g id="node5" class="node"><title>seq_factor</title>
<ellipse fill="none" stroke="black" cx="2.5493" cy="-86.039" rx="68" ry="18"/>
<text text-anchor="middle" x="2.5493" y="-81.439" font-family="Times,serif" font-size="14.00">seq_factor</text>
</g>
<!-- factor&#45;&gt;seq_factor -->
<g id="edge4" class="edge"><title>factor&#45;&gt;seq_factor</title>
<path fill="none" stroke="black" d="M-40.063,-26.727C-35.316,-36.722 -28.092,-49.249 -20.879,-60.228"/>
<polygon fill="black" stroke="black" points="-23.675,-62.34 -15.145,-68.624 -17.8945,-58.3921 -23.675,-62.34"/>
</g>
<!-- seq_term&#45;&gt;term -->
<g id="edge5" class="edge"><title>seq_term&#45;&gt;term</title>
<path fill="none" stroke="black" d="M-26.605,56.27C-26.532,56.286 -26.458,56.303 -26.385,56.32"/>
<polygon fill="black" stroke="black" points="-35.1396,50.7373 -26.165,56.37 -36.6933,57.5633 -35.1396,50.7373"/>
<text text-anchor="middle" x="-21.995" y="52.895" font-family="Times,serif" font-size="14.00">1</text>
</g>
<!-- seq_term&#45;&gt;factor -->
<g id="edge6" class="edge"><title>seq_term&#45;&gt;factor</title>
<path fill="none" stroke="black" d="M-72.524,37.782C-68.847,31.657 -64.649,24.668 -60.65,18.008"/>
<polygon fill="black" stroke="black" points="-63.5341,16.0121 -55.385,9.2413 -57.5331,19.6161 -63.5341,16.0121"/>
<text text-anchor="middle" x="-71.087" y="24.495" font-family="Times,serif" font-size="14.00">3</text>
</g>
<!-- &#39;+&#39; -->
<g id="node6" class="node"><title>&#39;+&#39;</title>
<ellipse fill="none" stroke="black" cx="-148.67" cy="93.288" rx="27.5073" ry="18"/>
<text text-anchor="middle" x="-148.67" y="97.888" font-family="Times,serif" font-size="14.00">&#39;+&#39;</text>
</g>
<!-- seq_term&#45;&gt;&#39;+&#39; -->
<g id="edge7" class="edge"><title>seq_term&#45;&gt;&#39;+&#39;</title>
<path fill="none" stroke="black" d="M-111.01,71.624C-113.62,73.126 -116.27,74.653 -118.9,76.165"/>
<polygon fill="black" stroke="black" points="-117.227,79.2401 -127.64,81.192 -120.717,73.1722 -117.227,79.2401"/>
<text text-anchor="middle" x="-110.45" y="86.495" font-family="Times,serif" font-size="14.00">2</text>
</g>
<!-- number -->
<g id="node7" class="node"><title>number</title>
<ellipse fill="none" stroke="black" cx="-59.841" cy="-91.311" rx="45.7319" ry="18"/>
<text text-anchor="middle" x="-59.841" y="-86.711" font-family="Times,serif" font-size="14.00">number</text>
</g>
<!-- atom&#45;&gt;number -->
<g id="edge8" class="edge"><title>atom&#45;&gt;number</title>
<path fill="none" stroke="black" d="M-1.7573,-46.822C-10.518,-53.532 -21.026,-61.581 -30.681,-68.976"/>
<polygon fill="black" stroke="black" points="-33.0706,-66.3975 -38.881,-75.257 -28.814,-71.9547 -33.0706,-66.3975"/>
</g>
<!-- seq_atom -->
<g id="node8" class="node"><title>seq_atom</title>
<ellipse fill="none" stroke="black" cx="63.536" cy="36.593" rx="56.5" ry="18"/>
<text text-anchor="middle" x="63.536" y="41.193" font-family="Times,serif" font-size="14.00">seq_atom</text>
</g>
<!-- atom&#45;&gt;seq_atom -->
<g id="edge9" class="edge"><title>atom&#45;&gt;seq_atom</title>
<path fill="none" stroke="black" d="M29.376,-14.546C34.399,-7.027 40.398,1.954 45.957,10.276"/>
<polygon fill="black" stroke="black" points="48.8878,8.36242 51.532,18.622 43.067,12.2507 48.8878,8.36242"/>
</g>
<!-- seq_factor&#45;&gt;factor -->
<g id="edge10" class="edge"><title>seq_factor&#45;&gt;factor</title>
<path fill="none" stroke="black" d="M-2.0864,-67.865C-6.9042,-57.722 -14.272,-44.971 -21.591,-33.877"/>
<polygon fill="black" stroke="black" points="-18.8545,-31.679 -27.4,-25.416 -24.6253,-35.6411 -18.8545,-31.679"/>
<text text-anchor="middle" x="-16.339" y="-54.271" font-family="Times,serif" font-size="14.00">1</text>
</g>
<!-- seq_factor&#45;&gt;atom -->
<g id="edge11" class="edge"><title>seq_factor&#45;&gt;atom</title>
<path fill="none" stroke="black" d="M7.643,-67.98C8.3834,-65.356 9.1599,-62.603 9.9399,-59.837"/>
<polygon fill="black" stroke="black" points="13.3765,-60.5457 12.723,-49.971 6.63944,-58.6451 13.3765,-60.5457"/>
<text text-anchor="middle" x="4.2915" y="-51.309" font-family="Times,serif" font-size="14.00">3</text>
</g>
<!-- &#39;*&#39; -->
<g id="node9" class="node"><title>&#39;*&#39;</title>
<ellipse fill="none" stroke="black" cx="22.409" cy="-162.04" rx="27.5073" ry="18"/>
<text text-anchor="middle" x="22.409" y="-157.44" font-family="Times,serif" font-size="14.00">&#39;*&#39;</text>
</g>
<!-- seq_factor&#45;&gt;&#39;*&#39; -->
<g id="edge12" class="edge"><title>seq_factor&#45;&gt;&#39;*&#39;</title>
<path fill="none" stroke="black" d="M7.2557,-104.05C9.6053,-113.04 12.5,-124.12 15.128,-134.18"/>
<polygon fill="black" stroke="black" points="11.8213,-135.37 17.736,-144.16 18.5939,-133.6 11.8213,-135.37"/>
<text text-anchor="middle" x="6.692" y="-122.51" font-family="Times,serif" font-size="14.00">2</text>
</g>
<!-- seq_atom&#45;&gt;term -->
<g id="edge13" class="edge"><title>seq_atom&#45;&gt;term</title>
<path fill="none" stroke="black" d="M26.364,50.221C26.268,50.256 26.173,50.291 26.078,50.326"/>
<polygon fill="black" stroke="black" points="27.8917,53.3888 17.298,53.545 25.4821,46.8166 27.8917,53.3888"/>
<text text-anchor="middle" x="30.721" y="62.874" font-family="Times,serif" font-size="14.00">2</text>
</g>
<!-- ( -->
<g id="node10" class="node"><title>(</title>
<ellipse fill="none" stroke="black" cx="142.58" cy="20.588" rx="27" ry="18"/>
<text text-anchor="middle" x="142.58" y="25.188" font-family="Times,serif" font-size="14.00">(</text>
</g>
<!-- seq_atom&#45;&gt;( -->
<g id="edge14" class="edge"><title>seq_atom&#45;&gt;(</title>
<path fill="none" stroke="black" d="M111.34,26.914C111.45,26.891 111.57,26.868 111.68,26.845"/>
<polygon fill="black" stroke="black" points="106.214,24.3813 116.71,25.826 107.604,31.242 106.214,24.3813"/>
<text text-anchor="middle" x="107.01" y="23.479" font-family="Times,serif" font-size="14.00">1</text>
</g>
<!-- ) -->
<g id="node11" class="node"><title>)</title>
<ellipse fill="none" stroke="black" cx="98.369" cy="109.76" rx="27" ry="18"/>
<text text-anchor="middle" x="98.369" y="114.36" font-family="Times,serif" font-size="14.00">)</text>
</g>
<!-- seq_atom&#45;&gt;) -->
<g id="edge15" class="edge"><title>seq_atom&#45;&gt;)</title>
<path fill="none" stroke="black" d="M72.147,54.679C76.257,63.312 81.254,73.809 85.78,83.315"/>
<polygon fill="black" stroke="black" points="88.9596,81.8515 90.098,92.385 82.6393,84.8605 88.9596,81.8515"/>
<text text-anchor="middle" x="74.463" y="81.597" font-family="Times,serif" font-size="14.00">3</text>
</g>
</g>
</svg>
