<?xml version="1.0" encoding="UTF-8" standalone="no"?>
<!DOCTYPE svg PUBLIC "-//W3C//DTD SVG 1.1//EN"
 "http://www.w3.org/Graphics/SVG/1.1/DTD/svg11.dtd">
<!-- Generated by graphviz version 2.38.0 (20140413.2041)
 -->
<!-- Title: Spec Pages: 1 -->
<svg width="534pt" height="357pt"
 viewBox="0.00 0.00 534.50 357.00" xmlns="http://www.w3.org/2000/svg" xmlns:xlink="http://www.w3.org/1999/xlink">
<g id="graph0" class="graph" transform="scale(1 1) rotate(0) translate(4.188 353)">
<title>Spec</title>
<polygon fill="white" stroke="none" points="-4.188,4 -4.188,-353 530.31,-353 530.31,4 -4.188,4"/>
<!-- Syntax -->
<g id="node1" class="node"><title>Syntax</title>
<ellipse fill="none" stroke="black" cx="186.31" cy="-182" rx="45" ry="18"/>
<text text-anchor="middle" x="186.31" y="-177.4" font-family="Times,serif" font-size="14.00">Syntax</text>
</g>
<!-- Grammar -->
<g id="node4" class="node"><title>Grammar</title>
<ellipse fill="none" stroke="black" cx="50.312" cy="-18" rx="50.5" ry="18"/>
<text text-anchor="middle" x="50.312" y="-13.4" font-family="Times,serif" font-size="14.00">Grammar</text>
</g>
<!-- Syntax&#45;&gt;Grammar -->
<g id="edge1" class="edge"><title>Syntax&#45;&gt;Grammar</title>
<path fill="none" stroke="black" d="M155.2,-168.91C129.17,-157.19 93.051,-136.94 72.312,-108 59.386,-89.963 54.014,-65.177 51.802,-46.341"/>
<polygon fill="black" stroke="black" points="55.2787,-45.9283 50.851,-36.303 48.3099,-46.5886 55.2787,-45.9283"/>
<text text-anchor="middle" x="127.31" y="-95.4" font-family="Times,serif" font-size="14.00">Specification</text>
</g>
<!-- Parse Tree -->
<g id="node5" class="node"><title>Parse Tree</title>
<ellipse fill="none" stroke="black" cx="186.31" cy="-18" rx="68" ry="18"/>
<text text-anchor="middle" x="186.31" y="-13.4" font-family="Times,serif" font-size="14.00">Parse Tree</text>
</g>
<!-- Syntax&#45;&gt;Parse Tree -->
<g id="edge2" class="edge"><title>Syntax&#45;&gt;Parse Tree</title>
<path fill="none" stroke="black" d="M186.31,-163.97C186.31,-135.97 186.31,-79.963 186.31,-46.352"/>
<polygon fill="black" stroke="black" points="189.81,-46.29 186.31,-36.29 182.81,-46.29 189.81,-46.29"/>
<text text-anchor="middle" x="207.81" y="-95.4" font-family="Times,serif" font-size="14.00">Proof</text>
</g>
<!-- AST -->
<g id="node6" class="node"><title>AST</title>
<ellipse fill="none" stroke="black" cx="301.31" cy="-18" rx="29" ry="18"/>
<text text-anchor="middle" x="301.31" y="-13.4" font-family="Times,serif" font-size="14.00">AST</text>
</g>
<!-- Syntax&#45;&gt;AST -->
<g id="edge3" class="edge"><title>Syntax&#45;&gt;AST</title>
<path fill="none" stroke="black" d="M197.97,-164.58C218.31,-135.92 260.36,-76.688 284.07,-43.284"/>
<polygon fill="black" stroke="black" points="287.025,-45.1681 289.96,-34.988 281.317,-41.1157 287.025,-45.1681"/>
<text text-anchor="middle" x="287.31" y="-95.4" font-family="Times,serif" font-size="14.00">Corollary</text>
</g>
<!-- Semantics -->
<g id="node2" class="node"><title>Semantics</title>
<ellipse fill="none" stroke="black" cx="311.31" cy="-182" rx="61.9317" ry="18"/>
<text text-anchor="middle" x="311.31" y="-177.4" font-family="Times,serif" font-size="14.00">Semantics</text>
</g>
<!-- Pragmatics -->
<g id="node3" class="node"><title>Pragmatics</title>
<ellipse fill="none" stroke="black" cx="458.31" cy="-182" rx="68" ry="18"/>
<text text-anchor="middle" x="458.31" y="-177.4" font-family="Times,serif" font-size="14.00">Pragmatics</text>
</g>
<!-- Specification -->
<g id="node7" class="node"><title>Specification</title>
<ellipse fill="none" stroke="black" cx="311.31" cy="-331" rx="84.5467" ry="18"/>
<text text-anchor="middle" x="311.31" y="-326.4" font-family="Times,serif" font-size="14.00">Specification</text>
</g>
<!-- Specification&#45;&gt;Syntax -->
<g id="edge4" class="edge"><title>Specification&#45;&gt;Syntax</title>
<path fill="none" stroke="black" d="M296.97,-313.14C274.82,-287.08 232.17,-236.93 206.78,-207.07"/>
<polygon fill="black" stroke="black" points="209.246,-204.568 200.1,-199.22 203.915,-209.104 209.246,-204.568"/>
</g>
<!-- Specification&#45;&gt;Semantics -->
<g id="edge5" class="edge"><title>Specification&#45;&gt;Semantics</title>
<path fill="none" stroke="black" d="M311.31,-312.85C311.31,-287.62 311.31,-240.26 311.31,-210.24"/>
<polygon fill="black" stroke="black" points="314.81,-210.04 311.31,-200.04 307.81,-210.04 314.81,-210.04"/>
</g>
<!-- Specification&#45;&gt;Pragmatics -->
<g id="edge6" class="edge"><title>Specification&#45;&gt;Pragmatics</title>
<path fill="none" stroke="black" d="M328.17,-313.14C354.31,-287 404.71,-236.6 434.53,-206.78"/>
<polygon fill="black" stroke="black" points="437.047,-209.213 441.65,-199.67 432.101,-204.26 437.047,-209.213"/>
</g>
</g>
</svg>
