<?xml version="1.0" encoding="UTF-8" standalone="no"?>
<!DOCTYPE svg PUBLIC "-//W3C//DTD SVG 1.1//EN"
 "http://www.w3.org/Graphics/SVG/1.1/DTD/svg11.dtd">
<!-- Generated by graphviz version 2.40.1 (0)
 -->
<!-- Title: Spec Pages: 1 -->
<svg width="758pt" height="277pt"
 viewBox="0.00 0.00 758.14 277.00" xmlns="http://www.w3.org/2000/svg" xmlns:xlink="http://www.w3.org/1999/xlink">
<g id="graph0" class="graph" transform="scale(1 1) rotate(0) translate(4 273)">
<title>Spec</title>
<polygon fill="#ffffff" stroke="transparent" points="-4,4 -4,-273 754.1367,-273 754.1367,4 -4,4"/>
<!-- Syntax -->
<g id="node1" class="node">
<title>Syntax</title>
<ellipse fill="none" stroke="#000000" cx="234.0957" cy="-178" rx="43" ry="18"/>
<text text-anchor="middle" x="234.0957" y="-174.3" font-family="Times-Roman" font-size="14.00" fill="#000000">Syntax</text>
</g>
<!-- Grammar -->
<g id="node4" class="node">
<title>Grammar</title>
<ellipse fill="none" stroke="#000000" cx="48.0957" cy="-91" rx="48.1917" ry="18"/>
<text text-anchor="middle" x="48.0957" y="-87.3" font-family="Times-Roman" font-size="14.00" fill="#000000">Grammar</text>
</g>
<!-- Syntax&#45;&gt;Grammar -->
<g id="edge1" class="edge">
<title>Syntax&#45;&gt;Grammar</title>
<path fill="none" stroke="#000000" d="M192.0246,-174.1011C162.295,-169.7962 122.4911,-160.7873 92.0957,-142 81.7382,-135.598 72.5271,-125.9667 65.2433,-116.7921"/>
<polygon fill="#000000" stroke="#000000" points="67.9098,-114.5135 59.1184,-108.6006 62.3037,-118.7053 67.9098,-114.5135"/>
<text text-anchor="middle" x="146.0957" y="-130.8" font-family="Times-Roman" font-size="14.00" fill="#000000">Specification</text>
</g>
<!-- Parse Tree -->
<g id="node5" class="node">
<title>Parse Tree</title>
<ellipse fill="none" stroke="#000000" cx="179.0957" cy="-91" rx="64.5" ry="18"/>
<text text-anchor="middle" x="179.0957" y="-87.3" font-family="Times-Roman" font-size="14.00" fill="#000000">Parse Tree</text>
</g>
<!-- Syntax&#45;&gt;Parse Tree -->
<g id="edge2" class="edge">
<title>Syntax&#45;&gt;Parse Tree</title>
<path fill="none" stroke="#000000" d="M222.9657,-160.3943C215.1895,-148.0938 204.6678,-131.4503 195.8779,-117.5463"/>
<polygon fill="#000000" stroke="#000000" points="198.7001,-115.4605 190.398,-108.8782 192.7832,-119.201 198.7001,-115.4605"/>
<text text-anchor="middle" x="231.0957" y="-130.8" font-family="Times-Roman" font-size="14.00" fill="#000000">Proof</text>
</g>
<!-- AST -->
<g id="node6" class="node">
<title>AST</title>
<ellipse fill="none" stroke="#000000" cx="289.0957" cy="-91" rx="27" ry="18"/>
<text text-anchor="middle" x="289.0957" y="-87.3" font-family="Times-Roman" font-size="14.00" fill="#000000">AST</text>
</g>
<!-- Syntax&#45;&gt;AST -->
<g id="edge3" class="edge">
<title>Syntax&#45;&gt;AST</title>
<path fill="none" stroke="#000000" d="M245.2258,-160.3943C253.2079,-147.768 264.0831,-130.5655 273.0084,-116.4473"/>
<polygon fill="#000000" stroke="#000000" points="276.1568,-118.0169 278.542,-107.694 270.24,-114.2764 276.1568,-118.0169"/>
<text text-anchor="middle" x="302.5957" y="-130.8" font-family="Times-Roman" font-size="14.00" fill="#000000">Corollary</text>
</g>
<!-- Semantics -->
<g id="node2" class="node">
<title>Semantics</title>
<ellipse fill="none" stroke="#000000" cx="431.0957" cy="-178" rx="59.2899" ry="18"/>
<text text-anchor="middle" x="431.0957" y="-174.3" font-family="Times-Roman" font-size="14.00" fill="#000000">Semantics</text>
</g>
<!-- Static Semantics -->
<g id="node7" class="node">
<title>Static Semantics</title>
<ellipse fill="none" stroke="#000000" cx="431.0957" cy="-91" rx="97" ry="18"/>
<text text-anchor="middle" x="431.0957" y="-87.3" font-family="Times-Roman" font-size="14.00" fill="#000000">Static Semantics</text>
</g>
<!-- Semantics&#45;&gt;Static Semantics -->
<g id="edge4" class="edge">
<title>Semantics&#45;&gt;Static Semantics</title>
<path fill="none" stroke="#000000" d="M431.0957,-159.9735C431.0957,-148.1918 431.0957,-132.5607 431.0957,-119.1581"/>
<polygon fill="#000000" stroke="#000000" points="434.5958,-119.0033 431.0957,-109.0034 427.5958,-119.0034 434.5958,-119.0033"/>
</g>
<!-- Dynamic Semantics -->
<g id="node8" class="node">
<title>Dynamic Semantics</title>
<ellipse fill="none" stroke="#000000" cx="648.0957" cy="-91" rx="102.0819" ry="18"/>
<text text-anchor="middle" x="648.0957" y="-87.3" font-family="Times-Roman" font-size="14.00" fill="#000000">Dynamic Semantics</text>
</g>
<!-- Semantics&#45;&gt;Dynamic Semantics -->
<g id="edge5" class="edge">
<title>Semantics&#45;&gt;Dynamic Semantics</title>
<path fill="none" stroke="#000000" d="M466.9289,-163.6337C502.4797,-149.3806 557.2937,-127.4045 597.3208,-111.3568"/>
<polygon fill="#000000" stroke="#000000" points="598.6655,-114.5885 606.6449,-107.6185 596.0606,-108.0912 598.6655,-114.5885"/>
</g>
<!-- Pragmatics -->
<g id="node3" class="node">
<title>Pragmatics</title>
<ellipse fill="none" stroke="#000000" cx="573.0957" cy="-178" rx="64.5" ry="18"/>
<text text-anchor="middle" x="573.0957" y="-174.3" font-family="Times-Roman" font-size="14.00" fill="#000000">Pragmatics</text>
</g>
<!-- Name binding -->
<g id="node9" class="node">
<title>Name binding</title>
<ellipse fill="none" stroke="#000000" cx="338.0957" cy="-18" rx="75.5" ry="18"/>
<text text-anchor="middle" x="338.0957" y="-14.3" font-family="Times-Roman" font-size="14.00" fill="#000000">Name binding</text>
</g>
<!-- Static Semantics&#45;&gt;Name binding -->
<g id="edge6" class="edge">
<title>Static Semantics&#45;&gt;Name binding</title>
<path fill="none" stroke="#000000" d="M408.583,-73.3287C396.3852,-63.7541 381.1549,-51.7991 367.9756,-41.4541"/>
<polygon fill="#000000" stroke="#000000" points="370.1074,-38.678 360.0802,-35.2566 365.7853,-44.1843 370.1074,-38.678"/>
</g>
<!-- Typing -->
<g id="node10" class="node">
<title>Typing</title>
<ellipse fill="none" stroke="#000000" cx="492.0957" cy="-18" rx="43" ry="18"/>
<text text-anchor="middle" x="492.0957" y="-14.3" font-family="Times-Roman" font-size="14.00" fill="#000000">Typing</text>
</g>
<!-- Static Semantics&#45;&gt;Typing -->
<g id="edge7" class="edge">
<title>Static Semantics&#45;&gt;Typing</title>
<path fill="none" stroke="#000000" d="M446.1744,-72.9551C453.6716,-63.983 462.8558,-52.992 471.0353,-43.2035"/>
<polygon fill="#000000" stroke="#000000" points="473.8841,-45.2526 477.6106,-35.3347 468.5126,-40.764 473.8841,-45.2526"/>
</g>
<!-- Name binding&#45;&gt;Typing -->
<g id="edge8" class="edge">
<title>Name binding&#45;&gt;Typing</title>
<path fill="none" stroke="#000000" d="M393.1387,-5.5977C410.5879,-3.853 428.037,-4.1881 445.4861,-6.6029"/>
<polygon fill="#000000" stroke="#000000" points="445.3293,-10.123 455.7599,-8.2651 446.4473,-3.2128 445.3293,-10.123"/>
</g>
<!-- Typing&#45;&gt;Name binding -->
<g id="edge9" class="edge">
<title>Typing&#45;&gt;Name binding</title>
<path fill="none" stroke="#000000" d="M455.7599,-27.7349C438.3108,-30.9661 420.8616,-32.1176 403.4125,-31.1892"/>
<polygon fill="#000000" stroke="#000000" points="403.3768,-27.6763 393.1387,-30.4023 402.8422,-34.6559 403.3768,-27.6763"/>
</g>
<!-- Specification -->
<g id="node11" class="node">
<title>Specification</title>
<ellipse fill="none" stroke="#000000" cx="431.0957" cy="-251" rx="80.6858" ry="18"/>
<text text-anchor="middle" x="431.0957" y="-247.3" font-family="Times-Roman" font-size="14.00" fill="#000000">Specification</text>
</g>
<!-- Specification&#45;&gt;Syntax -->
<g id="edge10" class="edge">
<title>Specification&#45;&gt;Syntax</title>
<path fill="none" stroke="#000000" d="M389.3171,-235.5186C355.908,-223.1386 309.2926,-205.8648 275.8816,-193.4841"/>
<polygon fill="#000000" stroke="#000000" points="276.9919,-190.163 266.3988,-189.9702 274.5595,-196.7269 276.9919,-190.163"/>
</g>
<!-- Specification&#45;&gt;Semantics -->
<g id="edge11" class="edge">
<title>Specification&#45;&gt;Semantics</title>
<path fill="none" stroke="#000000" d="M431.0957,-232.9551C431.0957,-224.8828 431.0957,-215.1764 431.0957,-206.1817"/>
<polygon fill="#000000" stroke="#000000" points="434.5958,-206.0903 431.0957,-196.0904 427.5958,-206.0904 434.5958,-206.0903"/>
</g>
<!-- Specification&#45;&gt;Pragmatics -->
<g id="edge12" class="edge">
<title>Specification&#45;&gt;Pragmatics</title>
<path fill="none" stroke="#000000" d="M463.3177,-234.4352C483.9384,-223.8344 510.8542,-209.9974 532.8729,-198.6779"/>
<polygon fill="#000000" stroke="#000000" points="534.6838,-201.6825 541.9771,-193.9976 531.4833,-195.4569 534.6838,-201.6825"/>
</g>
</g>
</svg>
