<?xml version="1.0" encoding="UTF-8" standalone="no"?>
<!DOCTYPE svg PUBLIC "-//W3C//DTD SVG 1.1//EN"
 "http://www.w3.org/Graphics/SVG/1.1/DTD/svg11.dtd">
<!-- Generated by graphviz version 2.38.0 (20140413.2041)
 -->
<!-- Title: Spec Pages: 1 -->
<svg width="413pt" height="269pt"
 viewBox="0.00 0.00 413.18 269.49" xmlns="http://www.w3.org/2000/svg" xmlns:xlink="http://www.w3.org/1999/xlink">
<g id="graph0" class="graph" transform="scale(1 1) rotate(0) translate(215.38 140.651)">
<title>Spec</title>
<polygon fill="white" stroke="none" points="-215.38,128.837 -215.38,-140.651 197.8,-140.651 197.8,128.837 -215.38,128.837"/>
<!-- Specification -->
<g id="node1" class="node"><title>Specification</title>
<ellipse fill="none" stroke="black" cx="-49.084" cy="7.6071" rx="84.5467" ry="18"/>
<text text-anchor="middle" x="-49.084" y="12.2071" font-family="Times,serif" font-size="14.00">Specification</text>
</g>
<!-- Syntax -->
<g id="node2" class="node"><title>Syntax</title>
<ellipse fill="none" stroke="black" cx="32.633" cy="-5.5795" rx="45" ry="18"/>
<text text-anchor="middle" x="32.633" y="-0.9795" font-family="Times,serif" font-size="14.00">Syntax</text>
</g>
<!-- Specification&#45;&gt;Syntax -->
<g id="edge1" class="edge"><title>Specification&#45;&gt;Syntax</title>
<path fill="none" stroke="black" d="M18.399,-3.2826C18.465,-3.2932 18.531,-3.3039 18.597,-3.3145"/>
<polygon fill="black" stroke="black" points="8.3625,-5.2038 18.794,-3.3463 9.48096,1.70679 8.3625,-5.2038"/>
</g>
<!-- Semantics -->
<g id="node3" class="node"><title>Semantics</title>
<ellipse fill="none" stroke="black" cx="-91.697" cy="74.837" rx="61.9317" ry="18"/>
<text text-anchor="middle" x="-91.697" y="79.437" font-family="Times,serif" font-size="14.00">Semantics</text>
</g>
<!-- Specification&#45;&gt;Semantics -->
<g id="edge2" class="edge"><title>Specification&#45;&gt;Semantics</title>
<path fill="none" stroke="black" d="M-60.503,25.623C-64.898,32.557 -70.013,40.627 -74.815,48.203"/>
<polygon fill="black" stroke="black" points="-71.936,50.1987 -80.246,56.771 -77.8484,46.451 -71.936,50.1987"/>
</g>
<!-- Pragmatics -->
<g id="node4" class="node"><title>Pragmatics</title>
<ellipse fill="none" stroke="black" cx="-111.38" cy="-41.654" rx="68" ry="18"/>
<text text-anchor="middle" x="-111.38" y="-37.054" font-family="Times,serif" font-size="14.00">Pragmatics</text>
</g>
<!-- Specification&#45;&gt;Pragmatics -->
<g id="edge3" class="edge"><title>Specification&#45;&gt;Pragmatics</title>
<path fill="none" stroke="black" d="M-71.222,-9.8992C-74.605,-12.575 -78.144,-15.373 -81.659,-18.152"/>
<polygon fill="black" stroke="black" points="-84.0575,-15.5866 -89.73,-24.535 -79.7153,-21.0771 -84.0575,-15.5866"/>
</g>
<!-- Grammar -->
<g id="node5" class="node"><title>Grammar</title>
<ellipse fill="none" stroke="black" cx="111.3" cy="-17.386" rx="50.5" ry="18"/>
<text text-anchor="middle" x="111.3" y="-12.786" font-family="Times,serif" font-size="14.00">Grammar</text>
</g>
<!-- Syntax&#45;&gt;Grammar -->
<g id="edge4" class="edge"><title>Syntax&#45;&gt;Grammar</title>
<path fill="none" stroke="black" d="M74.728,-11.897C74.801,-11.908 74.874,-11.919 74.947,-11.93"/>
<polygon fill="black" stroke="black" points="64.7547,-13.9301 75.166,-11.963 65.8004,-7.00818 64.7547,-13.9301"/>
<text text-anchor="middle" x="19.837" y="-15.314" font-family="Times,serif" font-size="14.00">Specification</text>
</g>
<!-- Parse Tree -->
<g id="node6" class="node"><title>Parse Tree</title>
<ellipse fill="none" stroke="black" cx="41.999" cy="-86.651" rx="68" ry="18"/>
<text text-anchor="middle" x="41.999" y="-82.051" font-family="Times,serif" font-size="14.00">Parse Tree</text>
</g>
<!-- Syntax&#45;&gt;Parse Tree -->
<g id="edge5" class="edge"><title>Syntax&#45;&gt;Parse Tree</title>
<path fill="none" stroke="black" d="M34.712,-23.572C35.892,-33.787 37.395,-46.802 38.73,-58.354"/>
<polygon fill="black" stroke="black" points="35.2693,-58.8968 39.894,-68.429 42.2231,-58.0934 35.2693,-58.8968"/>
<text text-anchor="middle" x="15.221" y="-44.363" font-family="Times,serif" font-size="14.00">Proof</text>
</g>
<!-- AST -->
<g id="node7" class="node"><title>AST</title>
<ellipse fill="none" stroke="black" cx="66.232" cy="68.826" rx="29" ry="18"/>
<text text-anchor="middle" x="66.232" y="73.426" font-family="Times,serif" font-size="14.00">AST</text>
</g>
<!-- Syntax&#45;&gt;AST -->
<g id="edge6" class="edge"><title>Syntax&#45;&gt;AST</title>
<path fill="none" stroke="black" d="M40.766,12.432C44.786,21.335 49.718,32.257 54.168,42.11"/>
<polygon fill="black" stroke="black" points="57.4793,40.9387 58.405,51.493 51.0996,43.8195 57.4793,40.9387"/>
<text text-anchor="middle" x="9.467" y="39.871" font-family="Times,serif" font-size="14.00">Corollary</text>
</g>
</g>
</svg>
