<?xml version="1.0" encoding="UTF-8" standalone="no"?>
<!DOCTYPE svg PUBLIC "-//W3C//DTD SVG 1.1//EN"
 "http://www.w3.org/Graphics/SVG/1.1/DTD/svg11.dtd">
<!-- Generated by graphviz version 2.38.0 (20140413.2041)
 -->
<!-- Title: Spec Pages: 1 -->
<svg width="813pt" height="482pt"
 viewBox="0.00 0.00 812.87 482.00" xmlns="http://www.w3.org/2000/svg" xmlns:xlink="http://www.w3.org/1999/xlink">
<g id="graph0" class="graph" transform="scale(1 1) rotate(0) translate(3.99916 478)">
<title>Spec</title>
<polygon fill="white" stroke="none" points="-3.99916,4 -3.99916,-478 808.875,-478 808.875,4 -3.99916,4"/>
<!-- Syntax -->
<g id="node1" class="node"><title>Syntax</title>
<ellipse fill="none" stroke="black" cx="175.14" cy="-310" rx="45" ry="18"/>
<text text-anchor="middle" x="175.14" y="-305.4" font-family="Times,serif" font-size="14.00">Syntax</text>
</g>
<!-- Semantics -->
<g id="node2" class="node"><title>Semantics</title>
<ellipse fill="none" stroke="black" cx="300.14" cy="-310" rx="61.9317" ry="18"/>
<text text-anchor="middle" x="300.14" y="-305.4" font-family="Times,serif" font-size="14.00">Semantics</text>
</g>
<!-- Static Semantics -->
<g id="node4" class="node"><title>Static Semantics</title>
<ellipse fill="none" stroke="black" cx="187.14" cy="-164" rx="101.5" ry="18"/>
<text text-anchor="middle" x="187.14" y="-159.4" font-family="Times,serif" font-size="14.00">Static Semantics</text>
</g>
<!-- Semantics&#45;&gt;Static Semantics -->
<g id="edge1" class="edge"><title>Semantics&#45;&gt;Static Semantics</title>
<path fill="none" stroke="black" d="M286.96,-292.2C267.24,-267.08 229.95,-219.56 206.95,-190.25"/>
<polygon fill="black" stroke="black" points="209.515,-187.849 200.59,-182.14 204.007,-192.169 209.515,-187.849"/>
</g>
<!-- Dynamic Semantics -->
<g id="node5" class="node"><title>Dynamic Semantics</title>
<ellipse fill="none" stroke="black" cx="414.14" cy="-164" rx="107.5" ry="18"/>
<text text-anchor="middle" x="414.14" y="-159.4" font-family="Times,serif" font-size="14.00">Dynamic Semantics</text>
</g>
<!-- Semantics&#45;&gt;Dynamic Semantics -->
<g id="edge2" class="edge"><title>Semantics&#45;&gt;Dynamic Semantics</title>
<path fill="none" stroke="black" d="M313.44,-292.2C333.33,-267.08 370.95,-219.56 394.15,-190.25"/>
<polygon fill="black" stroke="black" points="397.107,-192.153 400.57,-182.14 391.619,-187.808 397.107,-192.153"/>
</g>
<!-- Pragmatics -->
<g id="node3" class="node"><title>Pragmatics</title>
<ellipse fill="none" stroke="black" cx="447.14" cy="-310" rx="68" ry="18"/>
<text text-anchor="middle" x="447.14" y="-305.4" font-family="Times,serif" font-size="14.00">Pragmatics</text>
</g>
<!-- Operational Semantics -->
<g id="node6" class="node"><title>Operational Semantics</title>
<ellipse fill="none" stroke="black" cx="130.14" cy="-18" rx="130.278" ry="18"/>
<text text-anchor="middle" x="130.14" y="-13.4" font-family="Times,serif" font-size="14.00">Operational Semantics</text>
</g>
<!-- Dynamic Semantics&#45;&gt;Operational Semantics -->
<g id="edge3" class="edge"><title>Dynamic Semantics&#45;&gt;Operational Semantics</title>
<path fill="none" stroke="black" d="M382.11,-146.76C330.58,-120.63 229.27,-69.262 172.05,-40.251"/>
<polygon fill="black" stroke="black" points="173.422,-37.0224 162.92,-35.622 170.256,-43.2658 173.422,-37.0224"/>
</g>
<!-- Denotational Semantics -->
<g id="node7" class="node"><title>Denotational Semantics</title>
<ellipse fill="none" stroke="black" cx="414.14" cy="-18" rx="135.511" ry="18"/>
<text text-anchor="middle" x="414.14" y="-13.4" font-family="Times,serif" font-size="14.00">Denotational Semantics</text>
</g>
<!-- Dynamic Semantics&#45;&gt;Denotational Semantics -->
<g id="edge4" class="edge"><title>Dynamic Semantics&#45;&gt;Denotational Semantics</title>
<path fill="none" stroke="black" d="M414.14,-145.92C414.14,-121.34 414.14,-75.753 414.14,-46.427"/>
<polygon fill="black" stroke="black" points="417.64,-46.062 414.14,-36.062 410.64,-46.062 417.64,-46.062"/>
</g>
<!-- Axiomatic Semantics -->
<g id="node8" class="node"><title>Axiomatic Semantics</title>
<ellipse fill="none" stroke="black" cx="686.14" cy="-18" rx="118.971" ry="18"/>
<text text-anchor="middle" x="686.14" y="-13.4" font-family="Times,serif" font-size="14.00">Axiomatic Semantics</text>
</g>
<!-- Dynamic Semantics&#45;&gt;Axiomatic Semantics -->
<g id="edge5" class="edge"><title>Dynamic Semantics&#45;&gt;Axiomatic Semantics</title>
<path fill="none" stroke="black" d="M445.08,-146.62C494.44,-120.49 591,-69.365 645.75,-40.383"/>
<polygon fill="black" stroke="black" points="647.611,-43.3581 654.81,-35.585 644.335,-37.172 647.611,-43.3581"/>
</g>
<!-- Specification -->
<g id="node9" class="node"><title>Specification</title>
<ellipse fill="none" stroke="black" cx="300.14" cy="-456" rx="84.5467" ry="18"/>
<text text-anchor="middle" x="300.14" y="-451.4" font-family="Times,serif" font-size="14.00">Specification</text>
</g>
<!-- Specification&#45;&gt;Syntax -->
<g id="edge6" class="edge"><title>Specification&#45;&gt;Syntax</title>
<path fill="none" stroke="black" d="M285.56,-438.2C263.42,-412.7 221.25,-364.12 195.92,-334.93"/>
<polygon fill="black" stroke="black" points="198.45,-332.505 189.25,-327.25 193.165,-337.095 198.45,-332.505"/>
</g>
<!-- Specification&#45;&gt;Semantics -->
<g id="edge7" class="edge"><title>Specification&#45;&gt;Semantics</title>
<path fill="none" stroke="black" d="M300.14,-437.92C300.14,-413.34 300.14,-367.75 300.14,-338.43"/>
<polygon fill="black" stroke="black" points="303.64,-338.06 300.14,-328.06 296.64,-338.06 303.64,-338.06"/>
</g>
<!-- Specification&#45;&gt;Pragmatics -->
<g id="edge8" class="edge"><title>Specification&#45;&gt;Pragmatics</title>
<path fill="none" stroke="black" d="M317.29,-438.2C343.29,-412.73 392.81,-364.22 422.61,-335.03"/>
<polygon fill="black" stroke="black" points="425.407,-337.189 430.1,-327.69 420.508,-332.189 425.407,-337.189"/>
</g>
</g>
</svg>
