<?xml version="1.0" encoding="UTF-8" standalone="no"?>
<!DOCTYPE svg PUBLIC "-//W3C//DTD SVG 1.1//EN"
 "http://www.w3.org/Graphics/SVG/1.1/DTD/svg11.dtd">
<!-- Generated by graphviz version 2.38.0 (20140413.2041)
 -->
<!-- Title: Syntax Pages: 1 -->
<svg width="514pt" height="220pt"
 viewBox="0.00 0.00 514.12 220.00" xmlns="http://www.w3.org/2000/svg" xmlns:xlink="http://www.w3.org/1999/xlink">
<g id="graph0" class="graph" transform="scale(1 1) rotate(0) translate(4.151 216)">
<title>Syntax</title>
<polygon fill="white" stroke="none" points="-4.151,4 -4.151,-216 509.966,-216 509.966,4 -4.151,4"/>
<!-- term -->
<g id="node1" class="node"><title>term</title>
<ellipse fill="none" stroke="black" cx="91.349" cy="-194" rx="33.5821" ry="18"/>
<text text-anchor="middle" x="91.349" y="-189.4" font-family="Times,serif" font-size="14.00">term</text>
</g>
<!-- factor -->
<g id="node2" class="node"><title>factor</title>
<ellipse fill="none" stroke="black" cx="215.35" cy="-194" rx="45" ry="18"/>
<text text-anchor="middle" x="215.35" y="-189.4" font-family="Times,serif" font-size="14.00">factor</text>
</g>
<!-- term&#45;&gt;factor -->
<g id="edge1" class="edge"><title>term&#45;&gt;factor</title>
<path fill="none" stroke="black" d="M125.26,-194C136.87,-194 148.48,-194 160.1,-194"/>
<polygon fill="black" stroke="black" points="160.3,-197.5 170.3,-194 160.3,-190.5 160.3,-197.5"/>
</g>
<!-- seq_term -->
<g id="node4" class="node"><title>seq_term</title>
<ellipse fill="none" stroke="black" cx="56.349" cy="-106" rx="56.5" ry="18"/>
<text text-anchor="middle" x="56.349" y="-101.4" font-family="Times,serif" font-size="14.00">seq_term</text>
</g>
<!-- term&#45;&gt;seq_term -->
<g id="edge2" class="edge"><title>term&#45;&gt;seq_term</title>
<path fill="none" stroke="black" d="M85.32,-175.88C81.727,-165.92 76.977,-153.17 72.349,-142 71.16,-139.13 69.875,-136.15 68.568,-133.19"/>
<polygon fill="black" stroke="black" points="71.7148,-131.654 64.41,-123.98 65.3348,-134.534 71.7148,-131.654"/>
</g>
<!-- atom -->
<g id="node3" class="node"><title>atom</title>
<ellipse fill="none" stroke="black" cx="329.35" cy="-194" rx="33.5821" ry="18"/>
<text text-anchor="middle" x="329.35" y="-189.4" font-family="Times,serif" font-size="14.00">atom</text>
</g>
<!-- factor&#45;&gt;atom -->
<g id="edge3" class="edge"><title>factor&#45;&gt;atom</title>
<path fill="none" stroke="black" d="M260.33,-194C268.7,-194 277.07,-194 285.44,-194"/>
<polygon fill="black" stroke="black" points="285.65,-197.5 295.65,-194 285.65,-190.5 285.65,-197.5"/>
</g>
<!-- seq_factor -->
<g id="node5" class="node"><title>seq_factor</title>
<ellipse fill="none" stroke="black" cx="329.35" cy="-106" rx="68" ry="18"/>
<text text-anchor="middle" x="329.35" y="-101.4" font-family="Times,serif" font-size="14.00">seq_factor</text>
</g>
<!-- factor&#45;&gt;seq_factor -->
<g id="edge4" class="edge"><title>factor&#45;&gt;seq_factor</title>
<path fill="none" stroke="black" d="M217.21,-175.88C219.24,-164.91 223.48,-151.08 232.35,-142 241.61,-132.5 253.65,-125.57 266.06,-120.52"/>
<polygon fill="black" stroke="black" points="267.416,-123.751 275.59,-117.01 264.997,-117.182 267.416,-123.751"/>
</g>
<!-- number -->
<g id="node6" class="node"><title>number</title>
<ellipse fill="none" stroke="black" cx="460.35" cy="-106" rx="45.7319" ry="18"/>
<text text-anchor="middle" x="460.35" y="-101.4" font-family="Times,serif" font-size="14.00">number</text>
</g>
<!-- atom&#45;&gt;number -->
<g id="edge5" class="edge"><title>atom&#45;&gt;number</title>
<path fill="none" stroke="black" d="M349.82,-179.56C371.1,-165.59 404.66,-143.56 429.23,-127.43"/>
<polygon fill="black" stroke="black" points="431.394,-130.196 437.83,-121.78 427.55,-124.346 431.394,-130.196"/>
</g>
<!-- seq_atom -->
<g id="node7" class="node"><title>seq_atom</title>
<ellipse fill="none" stroke="black" cx="187.35" cy="-106" rx="56.5" ry="18"/>
<text text-anchor="middle" x="187.35" y="-101.4" font-family="Times,serif" font-size="14.00">seq_atom</text>
</g>
<!-- atom&#45;&gt;seq_atom -->
<g id="edge6" class="edge"><title>atom&#45;&gt;seq_atom</title>
<path fill="none" stroke="black" d="M315.83,-177.02C305.84,-166 291.4,-151.65 276.35,-142 264.2,-134.21 250.05,-127.67 236.65,-122.44"/>
<polygon fill="black" stroke="black" points="237.653,-119.078 227.06,-118.86 235.204,-125.636 237.653,-119.078"/>
</g>
<!-- seq_term&#45;&gt;term -->
<g id="edge7" class="edge"><title>seq_term&#45;&gt;term</title>
<path fill="none" stroke="black" d="M55.022,-124.18C54.875,-134.39 55.836,-147.37 60.349,-158 62.183,-162.32 64.77,-166.47 67.676,-170.32"/>
<polygon fill="black" stroke="black" points="65.2237,-172.838 74.379,-178.17 70.547,-168.292 65.2237,-172.838"/>
<text text-anchor="middle" x="64.849" y="-145.4" font-family="Times,serif" font-size="14.00">1</text>
</g>
<!-- seq_term&#45;&gt;factor -->
<g id="edge8" class="edge"><title>seq_term&#45;&gt;factor</title>
<path fill="none" stroke="black" d="M100.38,-117.34C119.61,-122.97 141.92,-131.05 160.35,-142 172.72,-149.35 184.65,-159.85 194.22,-169.42"/>
<polygon fill="black" stroke="black" points="191.895,-172.05 201.36,-176.81 196.929,-167.186 191.895,-172.05"/>
<text text-anchor="middle" x="186.85" y="-145.4" font-family="Times,serif" font-size="14.00">3</text>
</g>
<!-- &#39;+&#39; -->
<g id="node8" class="node"><title>&#39;+&#39;</title>
<ellipse fill="none" stroke="black" cx="56.349" cy="-18" rx="27.5073" ry="18"/>
<text text-anchor="middle" x="56.349" y="-13.4" font-family="Times,serif" font-size="14.00">&#39;+&#39;</text>
</g>
<!-- seq_term&#45;&gt;&#39;+&#39; -->
<g id="edge9" class="edge"><title>seq_term&#45;&gt;&#39;+&#39;</title>
<path fill="none" stroke="black" d="M56.349,-87.597C56.349,-75.746 56.349,-59.817 56.349,-46.292"/>
<polygon fill="black" stroke="black" points="59.8491,-46.084 56.349,-36.084 52.8491,-46.084 59.8491,-46.084"/>
<text text-anchor="middle" x="60.849" y="-57.4" font-family="Times,serif" font-size="14.00">2</text>
</g>
<!-- seq_factor&#45;&gt;factor -->
<g id="edge10" class="edge"><title>seq_factor&#45;&gt;factor</title>
<path fill="none" stroke="black" d="M307.88,-123.19C289.69,-136.92 263.45,-156.71 243.56,-171.72"/>
<polygon fill="black" stroke="black" points="241.347,-169.005 235.47,-177.82 245.562,-174.594 241.347,-169.005"/>
<text text-anchor="middle" x="287.85" y="-145.4" font-family="Times,serif" font-size="14.00">1</text>
</g>
<!-- seq_factor&#45;&gt;atom -->
<g id="edge11" class="edge"><title>seq_factor&#45;&gt;atom</title>
<path fill="none" stroke="black" d="M329.35,-124.08C329.35,-135.86 329.35,-151.77 329.35,-165.34"/>
<polygon fill="black" stroke="black" points="325.85,-165.6 329.35,-175.6 332.85,-165.6 325.85,-165.6"/>
<text text-anchor="middle" x="333.85" y="-145.4" font-family="Times,serif" font-size="14.00">3</text>
</g>
<!-- &#39;*&#39; -->
<g id="node9" class="node"><title>&#39;*&#39;</title>
<ellipse fill="none" stroke="black" cx="329.35" cy="-18" rx="27.5073" ry="18"/>
<text text-anchor="middle" x="329.35" y="-13.4" font-family="Times,serif" font-size="14.00">&#39;*&#39;</text>
</g>
<!-- seq_factor&#45;&gt;&#39;*&#39; -->
<g id="edge12" class="edge"><title>seq_factor&#45;&gt;&#39;*&#39;</title>
<path fill="none" stroke="black" d="M329.35,-87.597C329.35,-75.746 329.35,-59.817 329.35,-46.292"/>
<polygon fill="black" stroke="black" points="332.85,-46.084 329.35,-36.084 325.85,-46.084 332.85,-46.084"/>
<text text-anchor="middle" x="333.85" y="-57.4" font-family="Times,serif" font-size="14.00">2</text>
</g>
<!-- seq_atom&#45;&gt;term -->
<g id="edge13" class="edge"><title>seq_atom&#45;&gt;term</title>
<path fill="none" stroke="black" d="M169.19,-123.27C154.07,-136.81 132.42,-156.21 115.78,-171.11"/>
<polygon fill="black" stroke="black" points="113.181,-168.739 108.07,-178.02 117.853,-173.952 113.181,-168.739"/>
<text text-anchor="middle" x="152.85" y="-145.4" font-family="Times,serif" font-size="14.00">2</text>
</g>
<!-- ( -->
<g id="node10" class="node"><title>(</title>
<ellipse fill="none" stroke="black" cx="229.35" cy="-18" rx="27" ry="18"/>
<text text-anchor="middle" x="229.35" y="-13.4" font-family="Times,serif" font-size="14.00">(</text>
</g>
<!-- seq_atom&#45;&gt;( -->
<g id="edge14" class="edge"><title>seq_atom&#45;&gt;(</title>
<path fill="none" stroke="black" d="M195.65,-88.009C201.71,-75.6 210.03,-58.562 216.89,-44.52"/>
<polygon fill="black" stroke="black" points="220.114,-45.8945 221.35,-35.372 213.822,-42.8268 220.114,-45.8945"/>
<text text-anchor="middle" x="216.85" y="-57.4" font-family="Times,serif" font-size="14.00">1</text>
</g>
<!-- ) -->
<g id="node11" class="node"><title>)</title>
<ellipse fill="none" stroke="black" cx="157.35" cy="-18" rx="27" ry="18"/>
<text text-anchor="middle" x="157.35" y="-13.4" font-family="Times,serif" font-size="14.00">)</text>
</g>
<!-- seq_atom&#45;&gt;) -->
<g id="edge15" class="edge"><title>seq_atom&#45;&gt;)</title>
<path fill="none" stroke="black" d="M181.42,-88.009C177.16,-75.798 171.34,-59.105 166.49,-45.195"/>
<polygon fill="black" stroke="black" points="169.762,-43.9492 163.16,-35.663 163.154,-46.2578 169.762,-43.9492"/>
<text text-anchor="middle" x="179.85" y="-57.4" font-family="Times,serif" font-size="14.00">3</text>
</g>
</g>
</svg>
