<?xml version="1.0" encoding="UTF-8" standalone="no"?>
<!DOCTYPE svg PUBLIC "-//W3C//DTD SVG 1.1//EN"
 "http://www.w3.org/Graphics/SVG/1.1/DTD/svg11.dtd">
<!-- Generated by graphviz version 2.38.0 (20140413.2041)
 -->
<!-- Title: Spec Pages: 1 -->
<svg width="447pt" height="205pt"
 viewBox="0.00 0.00 446.68 205.49" xmlns="http://www.w3.org/2000/svg" xmlns:xlink="http://www.w3.org/1999/xlink">
<g id="graph0" class="graph" transform="scale(1 1) rotate(0) translate(223.38 108.651)">
<title>Spec</title>
<polygon fill="white" stroke="none" points="-223.38,96.837 -223.38,-108.651 223.3,-108.651 223.3,96.837 -223.38,96.837"/>
<!-- Specification -->
<g id="node1" class="node"><title>Specification</title>
<ellipse fill="none" stroke="black" cx="-49.084" cy="7.6071" rx="108" ry="18"/>
<text text-anchor="middle" x="-49.084" y="12.2071" font-family="Times,serif" font-size="14.00">Specification</text>
</g>
<!-- Syntax -->
<g id="node2" class="node"><title>Syntax</title>
<ellipse fill="none" stroke="black" cx="32.633" cy="-5.5795" rx="108" ry="18"/>
<text text-anchor="middle" x="32.633" y="-0.9795" font-family="Times,serif" font-size="14.00">Syntax</text>
</g>
<!-- Specification&#45;&gt;Syntax -->
<g id="edge1" class="edge"><title>Specification&#45;&gt;Syntax</title>
<path fill="none" stroke="black" d="M28.692,-4.9435C28.77,-4.9561 28.847,-4.9685 28.923,-4.9808"/>
<polygon fill="black" stroke="black" points="18.7169,-6.87601 29.148,-5.0171 19.8343,0.0346656 18.7169,-6.87601"/>
</g>
<!-- Semantics -->
<g id="node3" class="node"><title>Semantics</title>
<ellipse fill="none" stroke="black" cx="-91.697" cy="74.837" rx="108" ry="18"/>
<text text-anchor="middle" x="-91.697" y="79.437" font-family="Times,serif" font-size="14.00">Semantics</text>
</g>
<!-- Specification&#45;&gt;Semantics -->
<g id="edge2" class="edge"><title>Specification&#45;&gt;Semantics</title>
<path fill="none" stroke="black" d="M-60.503,25.623C-64.898,32.557 -70.013,40.627 -74.815,48.203"/>
<polygon fill="black" stroke="black" points="-71.936,50.1987 -80.246,56.771 -77.8484,46.451 -71.936,50.1987"/>
</g>
<!-- Pragmatics -->
<g id="node4" class="node"><title>Pragmatics</title>
<ellipse fill="none" stroke="black" cx="-111.38" cy="-41.654" rx="108" ry="18"/>
<text text-anchor="middle" x="-111.38" y="-37.054" font-family="Times,serif" font-size="14.00">Pragmatics</text>
</g>
<!-- Specification&#45;&gt;Pragmatics -->
<g id="edge3" class="edge"><title>Specification&#45;&gt;Pragmatics</title>
<path fill="none" stroke="black" d="M-71.574,-10.177C-74.536,-12.52 -77.612,-14.952 -80.682,-17.38"/>
<polygon fill="black" stroke="black" points="-83.0396,-14.7822 -88.713,-23.73 -78.698,-20.2731 -83.0396,-14.7822"/>
</g>
<!-- Grammar -->
<g id="node5" class="node"><title>Grammar</title>
<ellipse fill="none" stroke="black" cx="111.3" cy="-17.386" rx="108" ry="18"/>
<text text-anchor="middle" x="111.3" y="-12.786" font-family="Times,serif" font-size="14.00">Grammar</text>
</g>
<!-- Syntax&#45;&gt;Grammar -->
<g id="edge4" class="edge"><title>Syntax&#45;&gt;Grammar</title>
<path fill="none" stroke="black" d="M111.24,-17.377C111.25,-17.378 111.26,-17.38 111.26,-17.381"/>
<polygon fill="black" stroke="black" points="100.966,-19.8261 111.28,-17.383 101.693,-12.8607 100.966,-19.8261"/>
<text text-anchor="middle" x="56.251" y="-20.779" font-family="Times,serif" font-size="14.00">Specification</text>
</g>
<!-- Parse Tree -->
<g id="node6" class="node"><title>Parse Tree</title>
<ellipse fill="none" stroke="black" cx="41.999" cy="-86.651" rx="108" ry="18"/>
<text text-anchor="middle" x="41.999" y="-82.051" font-family="Times,serif" font-size="14.00">Parse Tree</text>
</g>
<!-- Syntax&#45;&gt;Parse Tree -->
<g id="edge5" class="edge"><title>Syntax&#45;&gt;Parse Tree</title>
<path fill="none" stroke="black" d="M34.758,-23.976C35.94,-34.206 37.436,-47.149 38.76,-58.614"/>
<polygon fill="black" stroke="black" points="35.2899,-59.075 39.915,-68.607 42.2436,-58.2712 35.2899,-59.075"/>
<text text-anchor="middle" x="58.259" y="-44.695" font-family="Times,serif" font-size="14.00">Proof</text>
</g>
<!-- AST -->
<g id="node7" class="node"><title>AST</title>
<ellipse fill="none" stroke="black" cx="66.232" cy="68.826" rx="108" ry="18"/>
<text text-anchor="middle" x="66.232" y="73.426" font-family="Times,serif" font-size="14.00">AST</text>
</g>
<!-- Syntax&#45;&gt;AST -->
<g id="edge6" class="edge"><title>Syntax&#45;&gt;AST</title>
<path fill="none" stroke="black" d="M40.766,12.432C44.699,21.141 49.504,31.783 53.877,41.466"/>
<polygon fill="black" stroke="black" points="57.1314,40.1687 58.057,50.723 50.7517,43.0495 57.1314,40.1687"/>
<text text-anchor="middle" x="9.3216" y="39.549" font-family="Times,serif" font-size="14.00">Corollary</text>
</g>
</g>
</svg>
