<?xml version="1.0" encoding="UTF-8" standalone="no"?>
<!DOCTYPE svg PUBLIC "-//W3C//DTD SVG 1.1//EN"
 "http://www.w3.org/Graphics/SVG/1.1/DTD/svg11.dtd">
<!-- Generated by graphviz version 2.40.1 (0)
 -->
<!-- Title: Spec Pages: 1 -->
<svg width="378pt" height="190pt"
 viewBox="0.00 0.00 377.50 190.00" xmlns="http://www.w3.org/2000/svg" xmlns:xlink="http://www.w3.org/1999/xlink">
<g id="graph0" class="graph" transform="scale(1 1) rotate(0) translate(4 186)">
<title>Spec</title>
<polygon fill="#ffffff" stroke="transparent" points="-4,4 -4,-186 373.5,-186 373.5,4 -4,4"/>
<!-- Syntax -->
<g id="node1" class="node">
<title>Syntax</title>
<ellipse fill="none" stroke="#000000" cx="43" cy="-18" rx="43" ry="18"/>
<text text-anchor="middle" x="43" y="-14.3" font-family="Times-Roman" font-size="14.00" fill="#000000">Syntax</text>
</g>
<!-- Semantics -->
<g id="node2" class="node">
<title>Semantics</title>
<ellipse fill="none" stroke="#000000" cx="163" cy="-18" rx="59.2899" ry="18"/>
<text text-anchor="middle" x="163" y="-14.3" font-family="Times-Roman" font-size="14.00" fill="#000000">Semantics</text>
</g>
<!-- Pragmatics -->
<g id="node3" class="node">
<title>Pragmatics</title>
<ellipse fill="none" stroke="#000000" cx="305" cy="-18" rx="64.5" ry="18"/>
<text text-anchor="middle" x="305" y="-14.3" font-family="Times-Roman" font-size="14.00" fill="#000000">Pragmatics</text>
</g>
<!-- Specification -->
<g id="node4" class="node">
<title>Specification</title>
<ellipse fill="none" stroke="#000000" cx="163" cy="-164" rx="80.6858" ry="18"/>
<text text-anchor="middle" x="163" y="-160.3" font-family="Times-Roman" font-size="14.00" fill="#000000">Specification</text>
</g>
<!-- Specification&#45;&gt;Syntax -->
<g id="edge1" class="edge">
<title>Specification&#45;&gt;Syntax</title>
<path fill="none" stroke="#000000" d="M148.2856,-146.0975C127.0048,-120.2059 87.5529,-72.206 63.4517,-42.8829"/>
<polygon fill="#000000" stroke="#000000" points="66.1424,-40.6445 57.0889,-35.1414 60.7346,-45.0893 66.1424,-40.6445"/>
</g>
<!-- Specification&#45;&gt;Semantics -->
<g id="edge2" class="edge">
<title>Specification&#45;&gt;Semantics</title>
<path fill="none" stroke="#000000" d="M163,-145.8042C163,-120.8868 163,-75.8938 163,-46.4877"/>
<polygon fill="#000000" stroke="#000000" points="166.5001,-46.4251 163,-36.4251 159.5001,-46.4251 166.5001,-46.4251"/>
</g>
<!-- Specification&#45;&gt;Pragmatics -->
<g id="edge3" class="edge">
<title>Specification&#45;&gt;Pragmatics</title>
<path fill="none" stroke="#000000" d="M180.1285,-146.389C205.1827,-120.6291 251.9481,-72.5463 280.5938,-43.0937"/>
<polygon fill="#000000" stroke="#000000" points="283.3475,-45.2824 287.8107,-35.6735 278.3295,-40.4018 283.3475,-45.2824"/>
</g>
</g>
</svg>
