<?xml version="1.0" encoding="UTF-8" standalone="no"?>
<!DOCTYPE svg PUBLIC "-//W3C//DTD SVG 1.1//EN"
 "http://www.w3.org/Graphics/SVG/1.1/DTD/svg11.dtd">
<!-- Generated by graphviz version 2.38.0 (20140413.2041)
 -->
<!-- Title: Syntax Pages: 1 -->
<svg width="263pt" height="557pt"
 viewBox="0.00 0.00 263.00 557.00" xmlns="http://www.w3.org/2000/svg" xmlns:xlink="http://www.w3.org/1999/xlink">
<g id="graph0" class="graph" transform="scale(1 1) rotate(0) translate(4.055 553)">
<title>Syntax</title>
<polygon fill="white" stroke="none" points="-4.055,4 -4.055,-553 258.94,-553 258.94,4 -4.055,4"/>
<!-- term -->
<g id="node1" class="node"><title>term</title>
<ellipse fill="none" stroke="black" cx="116.94" cy="-531" rx="33.5821" ry="18"/>
<text text-anchor="middle" x="116.94" y="-526.4" font-family="Times,serif" font-size="14.00">term</text>
</g>
<!-- factor -->
<g id="node2" class="node"><title>factor</title>
<ellipse fill="none" stroke="black" cx="44.945" cy="-355" rx="45" ry="18"/>
<text text-anchor="middle" x="44.945" y="-350.4" font-family="Times,serif" font-size="14.00">factor</text>
</g>
<!-- term&#45;&gt;factor -->
<g id="edge1" class="edge"><title>term&#45;&gt;factor</title>
<path fill="none" stroke="black" d="M98.161,-515.86C83.044,-503.29 62.758,-483.46 52.945,-461 42.175,-436.35 41.142,-405.35 42.212,-383.44"/>
<polygon fill="black" stroke="black" points="45.7223,-383.401 42.897,-373.19 38.7379,-382.934 45.7223,-383.401"/>
</g>
<!-- seq_term -->
<g id="node3" class="node"><title>seq_term</title>
<ellipse fill="none" stroke="black" cx="117.94" cy="-443" rx="56.5" ry="18"/>
<text text-anchor="middle" x="117.94" y="-438.4" font-family="Times,serif" font-size="14.00">seq_term</text>
</g>
<!-- term&#45;&gt;seq_term -->
<g id="edge2" class="edge"><title>term&#45;&gt;seq_term</title>
<path fill="none" stroke="black" d="M115.58,-513C114.96,-503.08 114.46,-490.33 114.94,-479 115.05,-476.44 115.21,-473.78 115.39,-471.12"/>
<polygon fill="black" stroke="black" points="118.885,-471.316 116.19,-461.07 111.907,-470.761 118.885,-471.316"/>
</g>
<!-- atom -->
<g id="node4" class="node"><title>atom</title>
<ellipse fill="none" stroke="black" cx="61.945" cy="-179" rx="33.5821" ry="18"/>
<text text-anchor="middle" x="61.945" y="-174.4" font-family="Times,serif" font-size="14.00">atom</text>
</g>
<!-- factor&#45;&gt;atom -->
<g id="edge3" class="edge"><title>factor&#45;&gt;atom</title>
<path fill="none" stroke="black" d="M37.557,-337.14C29.413,-316.28 18.401,-279.77 25.945,-249 29.777,-233.37 37.835,-217.35 45.357,-204.69"/>
<polygon fill="black" stroke="black" points="48.3812,-206.454 50.672,-196.11 42.4305,-202.768 48.3812,-206.454"/>
</g>
<!-- seq_factor -->
<g id="node5" class="node"><title>seq_factor</title>
<ellipse fill="none" stroke="black" cx="102.94" cy="-267" rx="68" ry="18"/>
<text text-anchor="middle" x="102.94" y="-262.4" font-family="Times,serif" font-size="14.00">seq_factor</text>
</g>
<!-- factor&#45;&gt;seq_factor -->
<g id="edge4" class="edge"><title>factor&#45;&gt;seq_factor</title>
<path fill="none" stroke="black" d="M50.346,-337.07C54.099,-326.71 59.723,-313.48 66.945,-303 69.576,-299.18 72.667,-295.44 75.915,-291.91"/>
<polygon fill="black" stroke="black" points="78.6305,-294.141 83.154,-284.56 73.6433,-289.229 78.6305,-294.141"/>
</g>
<!-- seq_term&#45;&gt;term -->
<g id="edge5" class="edge"><title>seq_term&#45;&gt;term</title>
<path fill="none" stroke="black" d="M117.75,-461.08C117.61,-472.86 117.42,-488.77 117.27,-502.34"/>
<polygon fill="black" stroke="black" points="113.767,-502.56 117.15,-512.6 120.767,-502.642 113.767,-502.56"/>
<text text-anchor="middle" x="122.44" y="-482.4" font-family="Times,serif" font-size="14.00">1</text>
</g>
<!-- seq_term&#45;&gt;factor -->
<g id="edge6" class="edge"><title>seq_term&#45;&gt;factor</title>
<path fill="none" stroke="black" d="M103.87,-425.42C92.995,-412.61 77.783,-394.69 65.54,-380.26"/>
<polygon fill="black" stroke="black" points="67.87,-377.597 58.729,-372.24 62.5344,-382.128 67.87,-377.597"/>
<text text-anchor="middle" x="93.445" y="-394.4" font-family="Times,serif" font-size="14.00">3</text>
</g>
<!-- &#39;+&#39; -->
<g id="node6" class="node"><title>&#39;+&#39;</title>
<ellipse fill="none" stroke="black" cx="134.94" cy="-355" rx="27.5073" ry="18"/>
<text text-anchor="middle" x="134.94" y="-350.4" font-family="Times,serif" font-size="14.00">&#39;+&#39;</text>
</g>
<!-- seq_term&#45;&gt;&#39;+&#39; -->
<g id="edge7" class="edge"><title>seq_term&#45;&gt;&#39;+&#39;</title>
<path fill="none" stroke="black" d="M121.3,-425.01C123.68,-412.99 126.91,-396.64 129.63,-382.87"/>
<polygon fill="black" stroke="black" points="133.083,-383.449 131.59,-372.96 126.216,-382.091 133.083,-383.449"/>
<text text-anchor="middle" x="133.44" y="-394.4" font-family="Times,serif" font-size="14.00">2</text>
</g>
<!-- number -->
<g id="node7" class="node"><title>number</title>
<ellipse fill="none" stroke="black" cx="61.945" cy="-106" rx="45.7319" ry="18"/>
<text text-anchor="middle" x="61.945" y="-101.4" font-family="Times,serif" font-size="14.00">number</text>
</g>
<!-- atom&#45;&gt;number -->
<g id="edge8" class="edge"><title>atom&#45;&gt;number</title>
<path fill="none" stroke="black" d="M61.945,-160.81C61.945,-152.79 61.945,-143.05 61.945,-134.07"/>
<polygon fill="black" stroke="black" points="65.4451,-134.03 61.945,-124.03 58.4451,-134.03 65.4451,-134.03"/>
</g>
<!-- seq_atom -->
<g id="node8" class="node"><title>seq_atom</title>
<ellipse fill="none" stroke="black" cx="191.94" cy="-106" rx="56.5" ry="18"/>
<text text-anchor="middle" x="191.94" y="-101.4" font-family="Times,serif" font-size="14.00">seq_atom</text>
</g>
<!-- atom&#45;&gt;seq_atom -->
<g id="edge9" class="edge"><title>atom&#45;&gt;seq_atom</title>
<path fill="none" stroke="black" d="M84.589,-165.63C104.15,-154.95 132.79,-139.31 155.56,-126.87"/>
<polygon fill="black" stroke="black" points="157.503,-129.797 164.6,-121.93 154.146,-123.654 157.503,-129.797"/>
</g>
<!-- seq_factor&#45;&gt;factor -->
<g id="edge10" class="edge"><title>seq_factor&#45;&gt;factor</title>
<path fill="none" stroke="black" d="M91.598,-284.82C83.105,-297.42 71.352,-314.84 61.767,-329.06"/>
<polygon fill="black" stroke="black" points="58.8184,-327.172 56.128,-337.42 64.6217,-331.087 58.8184,-327.172"/>
<text text-anchor="middle" x="84.445" y="-306.4" font-family="Times,serif" font-size="14.00">1</text>
</g>
<!-- seq_factor&#45;&gt;atom -->
<g id="edge11" class="edge"><title>seq_factor&#45;&gt;atom</title>
<path fill="none" stroke="black" d="M94.845,-249.01C88.967,-236.68 80.91,-219.78 74.241,-205.79"/>
<polygon fill="black" stroke="black" points="77.3513,-204.181 69.889,-196.66 71.0325,-207.193 77.3513,-204.181"/>
<text text-anchor="middle" x="91.445" y="-218.4" font-family="Times,serif" font-size="14.00">3</text>
</g>
<!-- &#39;*&#39; -->
<g id="node9" class="node"><title>&#39;*&#39;</title>
<ellipse fill="none" stroke="black" cx="140.94" cy="-179" rx="27.5073" ry="18"/>
<text text-anchor="middle" x="140.94" y="-174.4" font-family="Times,serif" font-size="14.00">&#39;*&#39;</text>
</g>
<!-- seq_factor&#45;&gt;&#39;*&#39; -->
<g id="edge12" class="edge"><title>seq_factor&#45;&gt;&#39;*&#39;</title>
<path fill="none" stroke="black" d="M110.45,-249.01C115.94,-236.6 123.46,-219.56 129.67,-205.52"/>
<polygon fill="black" stroke="black" points="132.873,-206.932 133.71,-196.37 126.469,-204.104 132.873,-206.932"/>
<text text-anchor="middle" x="130.44" y="-218.4" font-family="Times,serif" font-size="14.00">2</text>
</g>
<!-- seq_atom&#45;&gt;term -->
<g id="edge13" class="edge"><title>seq_atom&#45;&gt;term</title>
<path fill="none" stroke="black" d="M195.73,-124.12C198.56,-138.44 201.94,-159.45 201.94,-178 201.94,-444 201.94,-444 201.94,-444 201.94,-474.71 174.18,-498.41 150.39,-513.08"/>
<polygon fill="black" stroke="black" points="148.396,-510.191 141.53,-518.26 151.929,-516.234 148.396,-510.191"/>
<text text-anchor="middle" x="206.44" y="-306.4" font-family="Times,serif" font-size="14.00">2</text>
</g>
<!-- ( -->
<g id="node10" class="node"><title>(</title>
<ellipse fill="none" stroke="black" cx="155.94" cy="-18" rx="27" ry="18"/>
<text text-anchor="middle" x="155.94" y="-13.4" font-family="Times,serif" font-size="14.00">(</text>
</g>
<!-- seq_atom&#45;&gt;( -->
<g id="edge14" class="edge"><title>seq_atom&#45;&gt;(</title>
<path fill="none" stroke="black" d="M184.83,-88.009C179.72,-75.798 172.73,-59.105 166.91,-45.195"/>
<polygon fill="black" stroke="black" points="170.01,-43.536 162.92,-35.663 163.553,-46.2389 170.01,-43.536"/>
<text text-anchor="middle" x="182.44" y="-57.4" font-family="Times,serif" font-size="14.00">1</text>
</g>
<!-- ) -->
<g id="node11" class="node"><title>)</title>
<ellipse fill="none" stroke="black" cx="227.94" cy="-18" rx="27" ry="18"/>
<text text-anchor="middle" x="227.94" y="-13.4" font-family="Times,serif" font-size="14.00">)</text>
</g>
<!-- seq_atom&#45;&gt;) -->
<g id="edge15" class="edge"><title>seq_atom&#45;&gt;)</title>
<path fill="none" stroke="black" d="M199.06,-88.009C204.17,-75.798 211.16,-59.105 216.98,-45.195"/>
<polygon fill="black" stroke="black" points="220.337,-46.2389 220.97,-35.663 213.88,-43.536 220.337,-46.2389"/>
<text text-anchor="middle" x="217.44" y="-57.4" font-family="Times,serif" font-size="14.00">3</text>
</g>
</g>
</svg>
