<?xml version="1.0" encoding="UTF-8" standalone="no"?>
<!DOCTYPE svg PUBLIC "-//W3C//DTD SVG 1.1//EN"
 "http://www.w3.org/Graphics/SVG/1.1/DTD/svg11.dtd">
<!-- Generated by graphviz version 2.38.0 (20140413.2041)
 -->
<!-- Title: G Pages: 1 -->
<svg width="572pt" height="44pt"
 viewBox="0.00 0.00 571.95 44.00" xmlns="http://www.w3.org/2000/svg" xmlns:xlink="http://www.w3.org/1999/xlink">
<g id="graph0" class="graph" transform="scale(1 1) rotate(0) translate(4.055 40)">
<title>G</title>
<polygon fill="white" stroke="none" points="-4.055,4 -4.055,-40 567.897,-40 567.897,4 -4.055,4"/>
<!-- String -->
<g id="node1" class="node"><title>String</title>
<ellipse fill="none" stroke="black" cx="44.945" cy="-18" rx="45" ry="18"/>
<text text-anchor="middle" x="44.945" y="-13.4" font-family="Times,serif" font-size="14.00">String</text>
</g>
<!-- AST -->
<g id="node2" class="node"><title>AST</title>
<ellipse fill="none" stroke="black" cx="205.74" cy="-18" rx="29" ry="18"/>
<text text-anchor="middle" x="205.74" y="-13.4" font-family="Times,serif" font-size="14.00">AST</text>
</g>
<!-- String&#45;&gt;AST -->
<g id="edge1" class="edge"><title>String&#45;&gt;AST</title>
<path fill="none" stroke="black" d="M90.177,-18C114.21,-18 143.63,-18 166.64,-18"/>
<polygon fill="black" stroke="black" points="166.72,-21.5001 176.72,-18 166.72,-14.5001 166.72,-21.5001"/>
<text text-anchor="middle" x="133.39" y="-21.4" font-family="Times,serif" font-size="14.00">Syntax</text>
</g>
<!-- AST+Bindings -->
<g id="node3" class="node"><title>AST+Bindings</title>
<ellipse fill="none" stroke="black" cx="484.74" cy="-18" rx="79.3139" ry="18"/>
<text text-anchor="middle" x="484.74" y="-13.4" font-family="Times,serif" font-size="14.00">AST+Bindings</text>
</g>
<!-- AST&#45;&gt;AST+Bindings -->
<g id="edge2" class="edge"><title>AST&#45;&gt;AST+Bindings</title>
<path fill="none" stroke="black" d="M234.82,-18C272.18,-18 339.94,-18 395.35,-18"/>
<polygon fill="black" stroke="black" points="395.54,-21.5001 405.54,-18 395.54,-14.5001 395.54,-21.5001"/>
<text text-anchor="middle" x="320.08" y="-21.4" font-family="Times,serif" font-size="14.00">Static semantics</text>
</g>
</g>
</svg>
