<?xml version="1.0" encoding="UTF-8" standalone="no"?>
<!DOCTYPE svg PUBLIC "-//W3C//DTD SVG 1.1//EN"
 "http://www.w3.org/Graphics/SVG/1.1/DTD/svg11.dtd">
<!-- Generated by graphviz version 2.40.1 (0)
 -->
<!-- Title: Spec Pages: 1 -->
<svg width="952pt" height="356pt"
 viewBox="0.00 0.00 952.14 356.00" xmlns="http://www.w3.org/2000/svg" xmlns:xlink="http://www.w3.org/1999/xlink">
<g id="graph0" class="graph" transform="scale(1 1) rotate(0) translate(4 352)">
<title>Spec</title>
<polygon fill="#ffffff" stroke="transparent" points="-4,4 -4,-352 948.1367,-352 948.1367,4 -4,4"/>
<!-- Syntax -->
<g id="node1" class="node">
<title>Syntax</title>
<ellipse fill="none" stroke="#000000" cx="234.0957" cy="-181" rx="43" ry="18"/>
<text text-anchor="middle" x="234.0957" y="-177.3" font-family="Times-Roman" font-size="14.00" fill="#000000">Syntax</text>
</g>
<!-- Grammar -->
<g id="node4" class="node">
<title>Grammar</title>
<ellipse fill="none" stroke="#000000" cx="48.0957" cy="-18" rx="48.1917" ry="18"/>
<text text-anchor="middle" x="48.0957" y="-14.3" font-family="Times-Roman" font-size="14.00" fill="#000000">Grammar</text>
</g>
<!-- Syntax&#45;&gt;Grammar -->
<g id="edge1" class="edge">
<title>Syntax&#45;&gt;Grammar</title>
<path fill="none" stroke="#000000" d="M199.9133,-169.9011C168.8045,-158.3506 123.262,-137.6276 93.0957,-107 76.1027,-89.7471 64.2457,-64.7807 56.9849,-45.6789"/>
<polygon fill="#000000" stroke="#000000" points="60.191,-44.2516 53.5123,-36.027 53.6044,-46.6214 60.191,-44.2516"/>
<text text-anchor="middle" x="147.0957" y="-95.8" font-family="Times-Roman" font-size="14.00" fill="#000000">Specification</text>
</g>
<!-- Parse Tree -->
<g id="node5" class="node">
<title>Parse Tree</title>
<ellipse fill="none" stroke="#000000" cx="179.0957" cy="-18" rx="64.5" ry="18"/>
<text text-anchor="middle" x="179.0957" y="-14.3" font-family="Times-Roman" font-size="14.00" fill="#000000">Parse Tree</text>
</g>
<!-- Syntax&#45;&gt;Parse Tree -->
<g id="edge2" class="edge">
<title>Syntax&#45;&gt;Parse Tree</title>
<path fill="none" stroke="#000000" d="M227.9996,-162.9334C218.4186,-134.5388 199.7664,-79.2604 188.4704,-45.7832"/>
<polygon fill="#000000" stroke="#000000" points="191.7326,-44.5037 185.2191,-36.1476 185.1,-46.7417 191.7326,-44.5037"/>
<text text-anchor="middle" x="230.0957" y="-95.8" font-family="Times-Roman" font-size="14.00" fill="#000000">Proof</text>
</g>
<!-- AST -->
<g id="node6" class="node">
<title>AST</title>
<ellipse fill="none" stroke="#000000" cx="289.0957" cy="-18" rx="27" ry="18"/>
<text text-anchor="middle" x="289.0957" y="-14.3" font-family="Times-Roman" font-size="14.00" fill="#000000">AST</text>
</g>
<!-- Syntax&#45;&gt;AST -->
<g id="edge3" class="edge">
<title>Syntax&#45;&gt;AST</title>
<path fill="none" stroke="#000000" d="M240.1918,-162.9334C249.8235,-134.3885 268.6227,-78.6747 279.8997,-45.2537"/>
<polygon fill="#000000" stroke="#000000" points="283.2586,-46.2463 283.1395,-35.6521 276.626,-44.0082 283.2586,-46.2463"/>
<text text-anchor="middle" x="301.5957" y="-95.8" font-family="Times-Roman" font-size="14.00" fill="#000000">Corollary</text>
</g>
<!-- Semantics -->
<g id="node2" class="node">
<title>Semantics</title>
<ellipse fill="none" stroke="#000000" cx="538.0957" cy="-181" rx="59.2899" ry="18"/>
<text text-anchor="middle" x="538.0957" y="-177.3" font-family="Times-Roman" font-size="14.00" fill="#000000">Semantics</text>
</g>
<!-- Static Semantics -->
<g id="node7" class="node">
<title>Static Semantics</title>
<ellipse fill="none" stroke="#000000" cx="431.0957" cy="-18" rx="97" ry="18"/>
<text text-anchor="middle" x="431.0957" y="-14.3" font-family="Times-Roman" font-size="14.00" fill="#000000">Static Semantics</text>
</g>
<!-- Semantics&#45;&gt;Static Semantics -->
<g id="edge4" class="edge">
<title>Semantics&#45;&gt;Static Semantics</title>
<path fill="none" stroke="#000000" d="M526.4412,-163.2459C507.6466,-134.6149 470.5345,-78.0796 448.5655,-44.6128"/>
<polygon fill="#000000" stroke="#000000" points="451.4762,-42.6689 443.0626,-36.2299 445.6244,-46.5103 451.4762,-42.6689"/>
</g>
<!-- Typing -->
<g id="node8" class="node">
<title>Typing</title>
<ellipse fill="none" stroke="#000000" cx="679.0957" cy="-18" rx="43" ry="18"/>
<text text-anchor="middle" x="679.0957" y="-14.3" font-family="Times-Roman" font-size="14.00" fill="#000000">Typing</text>
</g>
<!-- Semantics&#45;&gt;Typing -->
<g id="edge5" class="edge">
<title>Semantics&#45;&gt;Typing</title>
<path fill="none" stroke="#000000" d="M553.1852,-163.5561C578.2035,-134.6342 628.3716,-76.6385 657.2577,-43.2454"/>
<polygon fill="#000000" stroke="#000000" points="660.2196,-45.1713 664.1148,-35.3184 654.9254,-40.5917 660.2196,-45.1713"/>
</g>
<!-- Dynamic Semantics -->
<g id="node9" class="node">
<title>Dynamic Semantics</title>
<ellipse fill="none" stroke="#000000" cx="842.0957" cy="-18" rx="102.0819" ry="18"/>
<text text-anchor="middle" x="842.0957" y="-14.3" font-family="Times-Roman" font-size="14.00" fill="#000000">Dynamic Semantics</text>
</g>
<!-- Semantics&#45;&gt;Dynamic Semantics -->
<g id="edge6" class="edge">
<title>Semantics&#45;&gt;Dynamic Semantics</title>
<path fill="none" stroke="#000000" d="M567.5208,-165.2228C621.9461,-136.0408 738.4535,-73.5713 800.7693,-40.1586"/>
<polygon fill="#000000" stroke="#000000" points="802.7628,-43.0611 809.922,-35.251 799.455,-36.8919 802.7628,-43.0611"/>
</g>
<!-- Pragmatics -->
<g id="node3" class="node">
<title>Pragmatics</title>
<ellipse fill="none" stroke="#000000" cx="680.0957" cy="-181" rx="64.5" ry="18"/>
<text text-anchor="middle" x="680.0957" y="-177.3" font-family="Times-Roman" font-size="14.00" fill="#000000">Pragmatics</text>
</g>
<!-- Static Semantics&#45;&gt;Typing -->
<g id="edge7" class="edge">
<title>Static Semantics&#45;&gt;Typing</title>
<path fill="none" stroke="#000000" d="M528.4551,-18C560.8959,-18 593.3367,-18 625.7776,-18"/>
<polygon fill="#000000" stroke="#000000" points="625.8454,-21.5001 635.8454,-18 625.8454,-14.5001 625.8454,-21.5001"/>
</g>
<!-- Specification -->
<g id="node10" class="node">
<title>Specification</title>
<ellipse fill="none" stroke="#000000" cx="538.0957" cy="-330" rx="80.6858" ry="18"/>
<text text-anchor="middle" x="538.0957" y="-326.3" font-family="Times-Roman" font-size="14.00" fill="#000000">Specification</text>
</g>
<!-- Specification&#45;&gt;Syntax -->
<g id="edge8" class="edge">
<title>Specification&#45;&gt;Syntax</title>
<path fill="none" stroke="#000000" d="M504.4009,-313.4851C447.0256,-285.3637 330.7954,-228.3955 271.186,-199.1791"/>
<polygon fill="#000000" stroke="#000000" points="272.6427,-195.9953 262.1229,-194.737 269.5619,-202.2809 272.6427,-195.9953"/>
</g>
<!-- Specification&#45;&gt;Semantics -->
<g id="edge9" class="edge">
<title>Specification&#45;&gt;Semantics</title>
<path fill="none" stroke="#000000" d="M538.0957,-311.7297C538.0957,-286.2604 538.0957,-239.829 538.0957,-209.7094"/>
<polygon fill="#000000" stroke="#000000" points="541.5958,-209.4197 538.0957,-199.4198 534.5958,-209.4198 541.5958,-209.4197"/>
</g>
<!-- Specification&#45;&gt;Pragmatics -->
<g id="edge10" class="edge">
<title>Specification&#45;&gt;Pragmatics</title>
<path fill="none" stroke="#000000" d="M554.9426,-312.3226C580.0299,-285.9986 627.3255,-236.3715 656.0455,-206.2358"/>
<polygon fill="#000000" stroke="#000000" points="658.9054,-208.3081 663.2708,-198.6544 653.8381,-203.4788 658.9054,-208.3081"/>
</g>
</g>
</svg>
