<?xml version="1.0" encoding="UTF-8" standalone="no"?>
<!DOCTYPE svg PUBLIC "-//W3C//DTD SVG 1.1//EN"
 "http://www.w3.org/Graphics/SVG/1.1/DTD/svg11.dtd">
<!-- Generated by graphviz version 2.38.0 (20140413.2041)
 -->
<!-- Title: Operational Pages: 1 -->
<svg width="857pt" height="260pt"
 viewBox="0.00 0.00 856.56 260.00" xmlns="http://www.w3.org/2000/svg" xmlns:xlink="http://www.w3.org/1999/xlink">
<g id="graph0" class="graph" transform="scale(1 1) rotate(0) translate(4.03 256)">
<title>Operational</title>
<polygon fill="white" stroke="none" points="-4.03,4 -4.03,-256 852.534,-256 852.534,4 -4.03,4"/>
<!-- Program -->
<g id="node1" class="node"><title>Program</title>
<ellipse fill="none" stroke="black" cx="73.468" cy="-234" rx="50.5" ry="18"/>
<text text-anchor="middle" x="73.468" y="-229.4" font-family="Times,serif" font-size="14.00">Program</text>
</g>
<!-- Input Function -->
<g id="node2" class="node"><title>Input Function</title>
<ellipse fill="none" stroke="black" cx="129.47" cy="-162" rx="90" ry="18"/>
<text text-anchor="middle" x="129.47" y="-157.4" font-family="Times,serif" font-size="14.00">Input Function</text>
</g>
<!-- Program&#45;&gt;Input Function -->
<g id="edge1" class="edge"><title>Program&#45;&gt;Input Function</title>
<path fill="none" stroke="black" d="M86.74,-216.41C93.544,-207.91 101.97,-197.37 109.54,-187.91"/>
<polygon fill="black" stroke="black" points="112.386,-189.955 115.9,-179.96 106.92,-185.582 112.386,-189.955"/>
</g>
<!-- Initial Configuration -->
<g id="node3" class="node"><title>Initial Configuration</title>
<ellipse fill="none" stroke="black" cx="129.47" cy="-90" rx="129.5" ry="18"/>
<text text-anchor="middle" x="129.47" y="-85.4" font-family="Times,serif" font-size="14.00">Initial Configuration</text>
</g>
<!-- Input Function&#45;&gt;Initial Configuration -->
<g id="edge2" class="edge"><title>Input Function&#45;&gt;Initial Configuration</title>
<path fill="none" stroke="black" d="M129.47,-143.7C129.47,-135.98 129.47,-126.71 129.47,-118.11"/>
<polygon fill="black" stroke="black" points="132.97,-118.1 129.47,-108.1 125.97,-118.1 132.97,-118.1"/>
</g>
<!-- Inputs -->
<g id="node4" class="node"><title>Inputs</title>
<ellipse fill="none" stroke="black" cx="186.47" cy="-234" rx="45" ry="18"/>
<text text-anchor="middle" x="186.47" y="-229.4" font-family="Times,serif" font-size="14.00">Inputs</text>
</g>
<!-- Inputs&#45;&gt;Input Function -->
<g id="edge3" class="edge"><title>Inputs&#45;&gt;Input Function</title>
<path fill="none" stroke="black" d="M173.25,-216.76C166.33,-208.27 157.71,-197.68 149.94,-188.15"/>
<polygon fill="black" stroke="black" points="152.435,-185.67 143.41,-180.12 147.004,-190.087 152.435,-185.67"/>
</g>
<!-- Initial configuration -->
<g id="node5" class="node"><title>Initial configuration</title>
<ellipse fill="none" stroke="black" cx="446.47" cy="-234" rx="129.5" ry="18"/>
<text text-anchor="middle" x="446.47" y="-229.4" font-family="Times,serif" font-size="14.00">Initial configuration</text>
</g>
<!-- Intermediate configuration 1 -->
<g id="node6" class="node"><title>Intermediate configuration 1</title>
<ellipse fill="none" stroke="black" cx="446.47" cy="-162" rx="169.093" ry="18"/>
<text text-anchor="middle" x="446.47" y="-157.4" font-family="Times,serif" font-size="14.00">Intermediate configuration 1</text>
</g>
<!-- Initial configuration&#45;&gt;Intermediate configuration 1 -->
<g id="edge4" class="edge"><title>Initial configuration&#45;&gt;Intermediate configuration 1</title>
<path fill="none" stroke="black" d="M446.47,-215.7C446.47,-207.98 446.47,-198.71 446.47,-190.11"/>
<polygon fill="black" stroke="black" points="449.97,-190.1 446.47,-180.1 442.97,-190.1 449.97,-190.1"/>
</g>
<!-- Intermediate configuration k -->
<g id="node7" class="node"><title>Intermediate configuration k</title>
<ellipse fill="none" stroke="black" cx="446.47" cy="-90" rx="169.093" ry="18"/>
<text text-anchor="middle" x="446.47" y="-85.4" font-family="Times,serif" font-size="14.00">Intermediate configuration k</text>
</g>
<!-- Intermediate configuration 1&#45;&gt;Intermediate configuration k -->
<g id="edge5" class="edge"><title>Intermediate configuration 1&#45;&gt;Intermediate configuration k</title>
<path fill="none" stroke="black" d="M446.47,-143.7C446.47,-135.98 446.47,-126.71 446.47,-118.11"/>
<polygon fill="black" stroke="black" points="449.97,-118.1 446.47,-108.1 442.97,-118.1 449.97,-118.1"/>
</g>
<!-- Final configuration -->
<g id="node8" class="node"><title>Final configuration</title>
<ellipse fill="none" stroke="black" cx="446.47" cy="-18" rx="118.129" ry="18"/>
<text text-anchor="middle" x="446.47" y="-13.4" font-family="Times,serif" font-size="14.00">Final configuration</text>
</g>
<!-- Intermediate configuration k&#45;&gt;Final configuration -->
<g id="edge6" class="edge"><title>Intermediate configuration k&#45;&gt;Final configuration</title>
<path fill="none" stroke="black" d="M446.47,-71.697C446.47,-63.983 446.47,-54.712 446.47,-46.112"/>
<polygon fill="black" stroke="black" points="449.97,-46.104 446.47,-36.104 442.97,-46.104 449.97,-46.104"/>
</g>
<!-- Final Configuration -->
<g id="node9" class="node"><title>Final Configuration</title>
<ellipse fill="none" stroke="black" cx="730.47" cy="-234" rx="118.129" ry="18"/>
<text text-anchor="middle" x="730.47" y="-229.4" font-family="Times,serif" font-size="14.00">Final Configuration</text>
</g>
<!-- Output Function -->
<g id="node10" class="node"><title>Output Function</title>
<ellipse fill="none" stroke="black" cx="730.47" cy="-162" rx="96.6964" ry="18"/>
<text text-anchor="middle" x="730.47" y="-157.4" font-family="Times,serif" font-size="14.00">Output Function</text>
</g>
<!-- Final Configuration&#45;&gt;Output Function -->
<g id="edge7" class="edge"><title>Final Configuration&#45;&gt;Output Function</title>
<path fill="none" stroke="black" d="M730.47,-215.7C730.47,-207.98 730.47,-198.71 730.47,-190.11"/>
<polygon fill="black" stroke="black" points="733.97,-190.1 730.47,-180.1 726.97,-190.1 733.97,-190.1"/>
</g>
<!-- Answer -->
<g id="node11" class="node"><title>Answer</title>
<ellipse fill="none" stroke="black" cx="730.47" cy="-90" rx="45.7319" ry="18"/>
<text text-anchor="middle" x="730.47" y="-85.4" font-family="Times,serif" font-size="14.00">Answer</text>
</g>
<!-- Output Function&#45;&gt;Answer -->
<g id="edge8" class="edge"><title>Output Function&#45;&gt;Answer</title>
<path fill="none" stroke="black" d="M730.47,-143.7C730.47,-135.98 730.47,-126.71 730.47,-118.11"/>
<polygon fill="black" stroke="black" points="733.97,-118.1 730.47,-108.1 726.97,-118.1 733.97,-118.1"/>
</g>
</g>
</svg>
