<?xml version="1.0" encoding="UTF-8" standalone="no"?>
<!DOCTYPE svg PUBLIC "-//W3C//DTD SVG 1.1//EN"
 "http://www.w3.org/Graphics/SVG/1.1/DTD/svg11.dtd">
<!-- Generated by graphviz version 2.38.0 (20140413.2041)
 -->
<!-- Title: Spec Pages: 1 -->
<svg width="304pt" height="266pt"
 viewBox="0.00 0.00 304.03 266.31" xmlns="http://www.w3.org/2000/svg" xmlns:xlink="http://www.w3.org/1999/xlink">
<g id="graph0" class="graph" transform="scale(1 1) rotate(0) translate(161.88 133.65)">
<title>Spec</title>
<polygon fill="white" stroke="none" points="-161.88,132.66 -161.88,-133.65 142.147,-133.65 142.147,132.66 -161.88,132.66"/>
<!-- Syntax -->
<g id="node1" class="node"><title>Syntax</title>
<ellipse fill="none" stroke="black" cx="-5.012" cy="-32.724" rx="45" ry="18"/>
<text text-anchor="middle" x="-5.012" y="-28.124" font-family="Times,serif" font-size="14.00">Syntax</text>
</g>
<!-- Grammar -->
<g id="node4" class="node"><title>Grammar</title>
<ellipse fill="none" stroke="black" cx="-85.782" cy="-44.03" rx="50.5" ry="18"/>
<text text-anchor="middle" x="-85.782" y="-39.43" font-family="Times,serif" font-size="14.00">Grammar</text>
</g>
<!-- Syntax&#45;&gt;Grammar -->
<g id="edge1" class="edge"><title>Syntax&#45;&gt;Grammar</title>
<path fill="none" stroke="black" d="M-47.762,-38.708C-47.838,-38.719 -47.914,-38.729 -47.989,-38.74"/>
<polygon fill="black" stroke="black" points="-38.7828,-33.9463 -48.216,-38.771 -37.833,-40.882 -38.7828,-33.9463"/>
<text text-anchor="middle" x="-102.88" y="-42.124" font-family="Times,serif" font-size="14.00">Specification</text>
</g>
<!-- Parse Tree -->
<g id="node5" class="node"><title>Parse Tree</title>
<ellipse fill="none" stroke="black" cx="70.147" cy="-64.722" rx="68" ry="18"/>
<text text-anchor="middle" x="70.147" y="-60.122" font-family="Times,serif" font-size="14.00">Parse Tree</text>
</g>
<!-- Syntax&#45;&gt;Parse Tree -->
<g id="edge2" class="edge"><title>Syntax&#45;&gt;Parse Tree</title>
<path fill="none" stroke="black" d="M25.992,-45.924C26.154,-45.992 26.316,-46.061 26.478,-46.13"/>
<polygon fill="black" stroke="black" points="23.2621,-48.5647 33.834,-49.262 26.0044,-42.1242 23.2621,-48.5647"/>
<text text-anchor="middle" x="47.735" y="-33.427" font-family="Times,serif" font-size="14.00">Proof</text>
</g>
<!-- AST -->
<g id="node6" class="node"><title>AST</title>
<ellipse fill="none" stroke="black" cx="-14.87" cy="-111.65" rx="29" ry="18"/>
<text text-anchor="middle" x="-14.87" y="-107.05" font-family="Times,serif" font-size="14.00">AST</text>
</g>
<!-- Syntax&#45;&gt;AST -->
<g id="edge3" class="edge"><title>Syntax&#45;&gt;AST</title>
<path fill="none" stroke="black" d="M-7.2983,-51.03C-8.4927,-60.594 -9.981,-72.511 -11.321,-83.242"/>
<polygon fill="black" stroke="black" points="-14.829,-83.0892 -12.596,-93.446 -7.88305,-83.9571 -14.829,-83.0892"/>
<text text-anchor="middle" x="-47.31" y="-70.536" font-family="Times,serif" font-size="14.00">Corollary</text>
</g>
<!-- Semantics -->
<g id="node2" class="node"><title>Semantics</title>
<ellipse fill="none" stroke="black" cx="72.808" cy="93.256" rx="61.9317" ry="18"/>
<text text-anchor="middle" x="72.808" y="97.856" font-family="Times,serif" font-size="14.00">Semantics</text>
</g>
<!-- Pragmatics -->
<g id="node3" class="node"><title>Pragmatics</title>
<ellipse fill="none" stroke="black" cx="-43.792" cy="110.66" rx="68" ry="18"/>
<text text-anchor="middle" x="-43.792" y="115.26" font-family="Times,serif" font-size="14.00">Pragmatics</text>
</g>
<!-- Specification -->
<g id="node7" class="node"><title>Specification</title>
<ellipse fill="none" stroke="black" cx="6.5006" cy="49.215" rx="84.5467" ry="18"/>
<text text-anchor="middle" x="6.5006" y="53.815" font-family="Times,serif" font-size="14.00">Specification</text>
</g>
<!-- Specification&#45;&gt;Syntax -->
<g id="edge4" class="edge"><title>Specification&#45;&gt;Syntax</title>
<path fill="none" stroke="black" d="M3.9456,31.03C2.4849,20.634 0.62095,7.3679 -1.028,-4.3681"/>
<polygon fill="black" stroke="black" points="-4.53872,-4.20028 -2.4641,-14.59 2.39321,-5.17422 -4.53872,-4.20028"/>
</g>
<!-- Specification&#45;&gt;Semantics -->
<g id="edge5" class="edge"><title>Specification&#45;&gt;Semantics</title>
<path fill="none" stroke="black" d="M32.327,66.369C34.554,67.848 36.828,69.358 39.105,70.871"/>
<polygon fill="black" stroke="black" points="41.4201,68.207 47.814,76.655 37.5474,74.0381 41.4201,68.207"/>
</g>
<!-- Specification&#45;&gt;Pragmatics -->
<g id="edge6" class="edge"><title>Specification&#45;&gt;Pragmatics</title>
<path fill="none" stroke="black" d="M-8.0461,66.987C-12.593,72.543 -17.707,78.79 -22.614,84.784"/>
<polygon fill="black" stroke="black" points="-20.0616,87.1916 -29.104,92.713 -25.4785,82.7578 -20.0616,87.1916"/>
</g>
</g>
</svg>
